<?xml version="1.0" encoding="utf-8" standalone="no"?>
<!DOCTYPE svg PUBLIC "-//W3C//DTD SVG 1.1//EN"
  "http://www.w3.org/Graphics/SVG/1.1/DTD/svg11.dtd">
<svg xmlns:xlink="http://www.w3.org/1999/xlink" width="720pt" height="432pt" viewBox="0 0 720 432" xmlns="http://www.w3.org/2000/svg" version="1.1">
 <metadata>
  <rdf:RDF xmlns:dc="http://purl.org/dc/elements/1.1/" xmlns:cc="http://creativecommons.org/ns#" xmlns:rdf="http://www.w3.org/1999/02/22-rdf-syntax-ns#">
   <cc:Work>
    <dc:type rdf:resource="http://purl.org/dc/dcmitype/StillImage"/>
    <dc:date>2024-11-18T19:56:49.163558</dc:date>
    <dc:format>image/svg+xml</dc:format>
    <dc:creator>
     <cc:Agent>
      <dc:title>Matplotlib v3.8.2, https://matplotlib.org/</dc:title>
     </cc:Agent>
    </dc:creator>
   </cc:Work>
  </rdf:RDF>
 </metadata>
 <defs>
  <style type="text/css">*{stroke-linejoin: round; stroke-linecap: butt}</style>
 </defs>
 <g id="figure_1">
  <g id="patch_1">
   <path d="M 0 432 
L 720 432 
L 720 0 
L 0 0 
z
" style="fill: #ffffff"/>
  </g>
  <g id="axes_1">
   <g id="patch_2">
    <path d="M 90 384.48 
L 648 384.48 
L 648 51.84 
L 90 51.84 
z
" style="fill: #ffffff"/>
   </g>
   <g id="patch_3">
    <path d="M 138.421488 384.48 
L 153.793388 384.48 
L 153.793388 380.752941 
L 138.421488 380.752941 
z
" clip-path="url(#p828652939c)" style="fill: #008000; opacity: 0.6"/>
   </g>
   <g id="patch_4">
    <path d="M 153.793388 384.48 
L 169.165289 384.48 
L 169.165289 384.48 
L 153.793388 384.48 
z
" clip-path="url(#p828652939c)" style="fill: #008000; opacity: 0.6"/>
   </g>
   <g id="patch_5">
    <path d="M 169.165289 384.48 
L 184.53719 384.48 
L 184.53719 373.298824 
L 169.165289 373.298824 
z
" clip-path="url(#p828652939c)" style="fill: #008000; opacity: 0.6"/>
   </g>
   <g id="patch_6">
    <path d="M 184.53719 384.48 
L 199.909091 384.48 
L 199.909091 369.571765 
L 184.53719 369.571765 
z
" clip-path="url(#p828652939c)" style="fill: #008000; opacity: 0.6"/>
   </g>
   <g id="patch_7">
    <path d="M 199.909091 384.48 
L 215.280992 384.48 
L 215.280992 358.390588 
L 199.909091 358.390588 
z
" clip-path="url(#p828652939c)" style="fill: #008000; opacity: 0.6"/>
   </g>
   <g id="patch_8">
    <path d="M 215.280992 384.48 
L 230.652893 384.48 
L 230.652893 332.301176 
L 215.280992 332.301176 
z
" clip-path="url(#p828652939c)" style="fill: #008000; opacity: 0.6"/>
   </g>
   <g id="patch_9">
    <path d="M 230.652893 384.48 
L 246.024793 384.48 
L 246.024793 336.028235 
L 230.652893 336.028235 
z
" clip-path="url(#p828652939c)" style="fill: #008000; opacity: 0.6"/>
   </g>
   <g id="patch_10">
    <path d="M 246.024793 384.48 
L 261.396694 384.48 
L 261.396694 332.301176 
L 246.024793 332.301176 
z
" clip-path="url(#p828652939c)" style="fill: #008000; opacity: 0.6"/>
   </g>
   <g id="patch_11">
    <path d="M 261.396694 384.48 
L 276.768595 384.48 
L 276.768595 265.214118 
L 261.396694 265.214118 
z
" clip-path="url(#p828652939c)" style="fill: #008000; opacity: 0.6"/>
   </g>
   <g id="patch_12">
    <path d="M 276.768595 384.48 
L 292.140496 384.48 
L 292.140496 254.032941 
L 276.768595 254.032941 
z
" clip-path="url(#p828652939c)" style="fill: #008000; opacity: 0.6"/>
   </g>
   <g id="patch_13">
    <path d="M 292.140496 384.48 
L 307.512397 384.48 
L 307.512397 268.941176 
L 292.140496 268.941176 
z
" clip-path="url(#p828652939c)" style="fill: #008000; opacity: 0.6"/>
   </g>
   <g id="patch_14">
    <path d="M 307.512397 384.48 
L 322.884298 384.48 
L 322.884298 175.764706 
L 307.512397 175.764706 
z
" clip-path="url(#p828652939c)" style="fill: #008000; opacity: 0.6"/>
   </g>
   <g id="patch_15">
    <path d="M 322.884298 384.48 
L 338.256198 384.48 
L 338.256198 160.856471 
L 322.884298 160.856471 
z
" clip-path="url(#p828652939c)" style="fill: #008000; opacity: 0.6"/>
   </g>
   <g id="patch_16">
    <path d="M 338.256198 384.48 
L 353.628099 384.48 
L 353.628099 138.494118 
L 338.256198 138.494118 
z
" clip-path="url(#p828652939c)" style="fill: #008000; opacity: 0.6"/>
   </g>
   <g id="patch_17">
    <path d="M 353.628099 384.48 
L 369 384.48 
L 369 116.131765 
L 353.628099 116.131765 
z
" clip-path="url(#p828652939c)" style="fill: #008000; opacity: 0.6"/>
   </g>
   <g id="patch_18">
    <path d="M 369 384.48 
L 384.371901 384.48 
L 384.371901 127.312941 
L 369 127.312941 
z
" clip-path="url(#p828652939c)" style="fill: #008000; opacity: 0.6"/>
   </g>
   <g id="patch_19">
    <path d="M 384.371901 384.48 
L 399.743802 384.48 
L 399.743802 67.68 
L 384.371901 67.68 
z
" clip-path="url(#p828652939c)" style="fill: #008000; opacity: 0.6"/>
   </g>
   <g id="patch_20">
    <path d="M 399.743802 384.48 
L 415.115702 384.48 
L 415.115702 86.315294 
L 399.743802 86.315294 
z
" clip-path="url(#p828652939c)" style="fill: #008000; opacity: 0.6"/>
   </g>
   <g id="patch_21">
    <path d="M 415.115702 384.48 
L 430.487603 384.48 
L 430.487603 153.402353 
L 415.115702 153.402353 
z
" clip-path="url(#p828652939c)" style="fill: #008000; opacity: 0.6"/>
   </g>
   <g id="patch_22">
    <path d="M 430.487603 384.48 
L 445.859504 384.48 
L 445.859504 168.310588 
L 430.487603 168.310588 
z
" clip-path="url(#p828652939c)" style="fill: #008000; opacity: 0.6"/>
   </g>
   <g id="patch_23">
    <path d="M 445.859504 384.48 
L 461.231405 384.48 
L 461.231405 164.583529 
L 445.859504 164.583529 
z
" clip-path="url(#p828652939c)" style="fill: #008000; opacity: 0.6"/>
   </g>
   <g id="patch_24">
    <path d="M 461.231405 384.48 
L 476.603306 384.48 
L 476.603306 239.124706 
L 461.231405 239.124706 
z
" clip-path="url(#p828652939c)" style="fill: #008000; opacity: 0.6"/>
   </g>
   <g id="patch_25">
    <path d="M 476.603306 384.48 
L 491.975207 384.48 
L 491.975207 227.943529 
L 476.603306 227.943529 
z
" clip-path="url(#p828652939c)" style="fill: #008000; opacity: 0.6"/>
   </g>
   <g id="patch_26">
    <path d="M 491.975207 384.48 
L 507.347107 384.48 
L 507.347107 250.305882 
L 491.975207 250.305882 
z
" clip-path="url(#p828652939c)" style="fill: #008000; opacity: 0.6"/>
   </g>
   <g id="patch_27">
    <path d="M 507.347107 384.48 
L 522.719008 384.48 
L 522.719008 302.484706 
L 507.347107 302.484706 
z
" clip-path="url(#p828652939c)" style="fill: #008000; opacity: 0.6"/>
   </g>
   <g id="patch_28">
    <path d="M 522.719008 384.48 
L 538.090909 384.48 
L 538.090909 350.936471 
L 522.719008 350.936471 
z
" clip-path="url(#p828652939c)" style="fill: #008000; opacity: 0.6"/>
   </g>
   <g id="patch_29">
    <path d="M 538.090909 384.48 
L 553.46281 384.48 
L 553.46281 332.301176 
L 538.090909 332.301176 
z
" clip-path="url(#p828652939c)" style="fill: #008000; opacity: 0.6"/>
   </g>
   <g id="patch_30">
    <path d="M 553.46281 384.48 
L 568.834711 384.48 
L 568.834711 362.117647 
L 553.46281 362.117647 
z
" clip-path="url(#p828652939c)" style="fill: #008000; opacity: 0.6"/>
   </g>
   <g id="patch_31">
    <path d="M 568.834711 384.48 
L 584.206612 384.48 
L 584.206612 365.844706 
L 568.834711 365.844706 
z
" clip-path="url(#p828652939c)" style="fill: #008000; opacity: 0.6"/>
   </g>
   <g id="patch_32">
    <path d="M 584.206612 384.48 
L 599.578512 384.48 
L 599.578512 362.117647 
L 584.206612 362.117647 
z
" clip-path="url(#p828652939c)" style="fill: #008000; opacity: 0.6"/>
   </g>
   <g id="matplotlib.axis_1">
    <g id="xtick_1">
     <g id="line2d_1">
      <defs>
       <path id="mc59e69dcca" d="M 0 0 
L 0 3.5 
" style="stroke: #000000; stroke-width: 0.8"/>
      </defs>
      <g>
       <use xlink:href="#mc59e69dcca" x="154.218518" y="384.48" style="stroke: #000000; stroke-width: 0.8"/>
      </g>
     </g>
     <g id="text_1">
      <!-- −3 -->
      <g transform="translate(146.847424 399.078438) scale(0.1 -0.1)">
       <defs>
        <path id="DejaVuSans-2212" d="M 678 2272 
L 4684 2272 
L 4684 1741 
L 678 1741 
L 678 2272 
z
" transform="scale(0.015625)"/>
        <path id="DejaVuSans-33" d="M 2597 2516 
Q 3050 2419 3304 2112 
Q 3559 1806 3559 1356 
Q 3559 666 3084 287 
Q 2609 -91 1734 -91 
Q 1441 -91 1130 -33 
Q 819 25 488 141 
L 488 750 
Q 750 597 1062 519 
Q 1375 441 1716 441 
Q 2309 441 2620 675 
Q 2931 909 2931 1356 
Q 2931 1769 2642 2001 
Q 2353 2234 1838 2234 
L 1294 2234 
L 1294 2753 
L 1863 2753 
Q 2328 2753 2575 2939 
Q 2822 3125 2822 3475 
Q 2822 3834 2567 4026 
Q 2313 4219 1838 4219 
Q 1578 4219 1281 4162 
Q 984 4106 628 3988 
L 628 4550 
Q 988 4650 1302 4700 
Q 1616 4750 1894 4750 
Q 2613 4750 3031 4423 
Q 3450 4097 3450 3541 
Q 3450 3153 3228 2886 
Q 3006 2619 2597 2516 
z
" transform="scale(0.015625)"/>
       </defs>
       <use xlink:href="#DejaVuSans-2212"/>
       <use xlink:href="#DejaVuSans-33" x="83.789062"/>
      </g>
     </g>
    </g>
    <g id="xtick_2">
     <g id="line2d_2">
      <g>
       <use xlink:href="#mc59e69dcca" x="232.966371" y="384.48" style="stroke: #000000; stroke-width: 0.8"/>
      </g>
     </g>
     <g id="text_2">
      <!-- −2 -->
      <g transform="translate(225.595277 399.078438) scale(0.1 -0.1)">
       <defs>
        <path id="DejaVuSans-32" d="M 1228 531 
L 3431 531 
L 3431 0 
L 469 0 
L 469 531 
Q 828 903 1448 1529 
Q 2069 2156 2228 2338 
Q 2531 2678 2651 2914 
Q 2772 3150 2772 3378 
Q 2772 3750 2511 3984 
Q 2250 4219 1831 4219 
Q 1534 4219 1204 4116 
Q 875 4013 500 3803 
L 500 4441 
Q 881 4594 1212 4672 
Q 1544 4750 1819 4750 
Q 2544 4750 2975 4387 
Q 3406 4025 3406 3419 
Q 3406 3131 3298 2873 
Q 3191 2616 2906 2266 
Q 2828 2175 2409 1742 
Q 1991 1309 1228 531 
z
" transform="scale(0.015625)"/>
       </defs>
       <use xlink:href="#DejaVuSans-2212"/>
       <use xlink:href="#DejaVuSans-32" x="83.789062"/>
      </g>
     </g>
    </g>
    <g id="xtick_3">
     <g id="line2d_3">
      <g>
       <use xlink:href="#mc59e69dcca" x="311.714223" y="384.48" style="stroke: #000000; stroke-width: 0.8"/>
      </g>
     </g>
     <g id="text_3">
      <!-- −1 -->
      <g transform="translate(304.343129 399.078438) scale(0.1 -0.1)">
       <defs>
        <path id="DejaVuSans-31" d="M 794 531 
L 1825 531 
L 1825 4091 
L 703 3866 
L 703 4441 
L 1819 4666 
L 2450 4666 
L 2450 531 
L 3481 531 
L 3481 0 
L 794 0 
L 794 531 
z
" transform="scale(0.015625)"/>
       </defs>
       <use xlink:href="#DejaVuSans-2212"/>
       <use xlink:href="#DejaVuSans-31" x="83.789062"/>
      </g>
     </g>
    </g>
    <g id="xtick_4">
     <g id="line2d_4">
      <g>
       <use xlink:href="#mc59e69dcca" x="390.462075" y="384.48" style="stroke: #000000; stroke-width: 0.8"/>
      </g>
     </g>
     <g id="text_4">
      <!-- 0 -->
      <g transform="translate(387.280825 399.078438) scale(0.1 -0.1)">
       <defs>
        <path id="DejaVuSans-30" d="M 2034 4250 
Q 1547 4250 1301 3770 
Q 1056 3291 1056 2328 
Q 1056 1369 1301 889 
Q 1547 409 2034 409 
Q 2525 409 2770 889 
Q 3016 1369 3016 2328 
Q 3016 3291 2770 3770 
Q 2525 4250 2034 4250 
z
M 2034 4750 
Q 2819 4750 3233 4129 
Q 3647 3509 3647 2328 
Q 3647 1150 3233 529 
Q 2819 -91 2034 -91 
Q 1250 -91 836 529 
Q 422 1150 422 2328 
Q 422 3509 836 4129 
Q 1250 4750 2034 4750 
z
" transform="scale(0.015625)"/>
       </defs>
       <use xlink:href="#DejaVuSans-30"/>
      </g>
     </g>
    </g>
    <g id="xtick_5">
     <g id="line2d_5">
      <g>
       <use xlink:href="#mc59e69dcca" x="469.209928" y="384.48" style="stroke: #000000; stroke-width: 0.8"/>
      </g>
     </g>
     <g id="text_5">
      <!-- 1 -->
      <g transform="translate(466.028678 399.078438) scale(0.1 -0.1)">
       <use xlink:href="#DejaVuSans-31"/>
      </g>
     </g>
    </g>
    <g id="xtick_6">
     <g id="line2d_6">
      <g>
       <use xlink:href="#mc59e69dcca" x="547.95778" y="384.48" style="stroke: #000000; stroke-width: 0.8"/>
      </g>
     </g>
     <g id="text_6">
      <!-- 2 -->
      <g transform="translate(544.77653 399.078438) scale(0.1 -0.1)">
       <use xlink:href="#DejaVuSans-32"/>
      </g>
     </g>
    </g>
    <g id="xtick_7">
     <g id="line2d_7">
      <g>
       <use xlink:href="#mc59e69dcca" x="626.705632" y="384.48" style="stroke: #000000; stroke-width: 0.8"/>
      </g>
     </g>
     <g id="text_7">
      <!-- 3 -->
      <g transform="translate(623.524382 399.078438) scale(0.1 -0.1)">
       <use xlink:href="#DejaVuSans-33"/>
      </g>
     </g>
    </g>
    <g id="text_8">
     <!-- Value -->
     <g transform="translate(355.26875 412.756563) scale(0.1 -0.1)">
      <defs>
       <path id="DejaVuSans-56" d="M 1831 0 
L 50 4666 
L 709 4666 
L 2188 738 
L 3669 4666 
L 4325 4666 
L 2547 0 
L 1831 0 
z
" transform="scale(0.015625)"/>
       <path id="DejaVuSans-61" d="M 2194 1759 
Q 1497 1759 1228 1600 
Q 959 1441 959 1056 
Q 959 750 1161 570 
Q 1363 391 1709 391 
Q 2188 391 2477 730 
Q 2766 1069 2766 1631 
L 2766 1759 
L 2194 1759 
z
M 3341 1997 
L 3341 0 
L 2766 0 
L 2766 531 
Q 2569 213 2275 61 
Q 1981 -91 1556 -91 
Q 1019 -91 701 211 
Q 384 513 384 1019 
Q 384 1609 779 1909 
Q 1175 2209 1959 2209 
L 2766 2209 
L 2766 2266 
Q 2766 2663 2505 2880 
Q 2244 3097 1772 3097 
Q 1472 3097 1187 3025 
Q 903 2953 641 2809 
L 641 3341 
Q 956 3463 1253 3523 
Q 1550 3584 1831 3584 
Q 2591 3584 2966 3190 
Q 3341 2797 3341 1997 
z
" transform="scale(0.015625)"/>
       <path id="DejaVuSans-6c" d="M 603 4863 
L 1178 4863 
L 1178 0 
L 603 0 
L 603 4863 
z
" transform="scale(0.015625)"/>
       <path id="DejaVuSans-75" d="M 544 1381 
L 544 3500 
L 1119 3500 
L 1119 1403 
Q 1119 906 1312 657 
Q 1506 409 1894 409 
Q 2359 409 2629 706 
Q 2900 1003 2900 1516 
L 2900 3500 
L 3475 3500 
L 3475 0 
L 2900 0 
L 2900 538 
Q 2691 219 2414 64 
Q 2138 -91 1772 -91 
Q 1169 -91 856 284 
Q 544 659 544 1381 
z
M 1991 3584 
L 1991 3584 
z
" transform="scale(0.015625)"/>
       <path id="DejaVuSans-65" d="M 3597 1894 
L 3597 1613 
L 953 1613 
Q 991 1019 1311 708 
Q 1631 397 2203 397 
Q 2534 397 2845 478 
Q 3156 559 3463 722 
L 3463 178 
Q 3153 47 2828 -22 
Q 2503 -91 2169 -91 
Q 1331 -91 842 396 
Q 353 884 353 1716 
Q 353 2575 817 3079 
Q 1281 3584 2069 3584 
Q 2775 3584 3186 3129 
Q 3597 2675 3597 1894 
z
M 3022 2063 
Q 3016 2534 2758 2815 
Q 2500 3097 2075 3097 
Q 1594 3097 1305 2825 
Q 1016 2553 972 2059 
L 3022 2063 
z
" transform="scale(0.015625)"/>
      </defs>
      <use xlink:href="#DejaVuSans-56"/>
      <use xlink:href="#DejaVuSans-61" x="60.658203"/>
      <use xlink:href="#DejaVuSans-6c" x="121.9375"/>
      <use xlink:href="#DejaVuSans-75" x="149.720703"/>
      <use xlink:href="#DejaVuSans-65" x="213.099609"/>
     </g>
    </g>
   </g>
   <g id="matplotlib.axis_2">
    <g id="ytick_1">
     <g id="line2d_8">
      <defs>
       <path id="m3e26586f3f" d="M 0 0 
L -3.5 0 
" style="stroke: #000000; stroke-width: 0.8"/>
      </defs>
      <g>
       <use xlink:href="#m3e26586f3f" x="90" y="384.48" style="stroke: #000000; stroke-width: 0.8"/>
      </g>
     </g>
     <g id="text_9">
      <!-- 0.0 -->
      <g transform="translate(67.096875 388.279219) scale(0.1 -0.1)">
       <defs>
        <path id="DejaVuSans-2e" d="M 684 794 
L 1344 794 
L 1344 0 
L 684 0 
L 684 794 
z
" transform="scale(0.015625)"/>
       </defs>
       <use xlink:href="#DejaVuSans-30"/>
       <use xlink:href="#DejaVuSans-2e" x="63.623047"/>
       <use xlink:href="#DejaVuSans-30" x="95.410156"/>
      </g>
     </g>
    </g>
    <g id="ytick_2">
     <g id="line2d_9">
      <g>
       <use xlink:href="#m3e26586f3f" x="90" y="311.726297" style="stroke: #000000; stroke-width: 0.8"/>
      </g>
     </g>
     <g id="text_10">
      <!-- 0.1 -->
      <g transform="translate(67.096875 315.525516) scale(0.1 -0.1)">
       <use xlink:href="#DejaVuSans-30"/>
       <use xlink:href="#DejaVuSans-2e" x="63.623047"/>
       <use xlink:href="#DejaVuSans-31" x="95.410156"/>
      </g>
     </g>
    </g>
    <g id="ytick_3">
     <g id="line2d_10">
      <g>
       <use xlink:href="#m3e26586f3f" x="90" y="238.972594" style="stroke: #000000; stroke-width: 0.8"/>
      </g>
     </g>
     <g id="text_11">
      <!-- 0.2 -->
      <g transform="translate(67.096875 242.771813) scale(0.1 -0.1)">
       <use xlink:href="#DejaVuSans-30"/>
       <use xlink:href="#DejaVuSans-2e" x="63.623047"/>
       <use xlink:href="#DejaVuSans-32" x="95.410156"/>
      </g>
     </g>
    </g>
    <g id="ytick_4">
     <g id="line2d_11">
      <g>
       <use xlink:href="#m3e26586f3f" x="90" y="166.218891" style="stroke: #000000; stroke-width: 0.8"/>
      </g>
     </g>
     <g id="text_12">
      <!-- 0.3 -->
      <g transform="translate(67.096875 170.01811) scale(0.1 -0.1)">
       <use xlink:href="#DejaVuSans-30"/>
       <use xlink:href="#DejaVuSans-2e" x="63.623047"/>
       <use xlink:href="#DejaVuSans-33" x="95.410156"/>
      </g>
     </g>
    </g>
    <g id="ytick_5">
     <g id="line2d_12">
      <g>
       <use xlink:href="#m3e26586f3f" x="90" y="93.465188" style="stroke: #000000; stroke-width: 0.8"/>
      </g>
     </g>
     <g id="text_13">
      <!-- 0.4 -->
      <g transform="translate(67.096875 97.264407) scale(0.1 -0.1)">
       <defs>
        <path id="DejaVuSans-34" d="M 2419 4116 
L 825 1625 
L 2419 1625 
L 2419 4116 
z
M 2253 4666 
L 3047 4666 
L 3047 1625 
L 3713 1625 
L 3713 1100 
L 3047 1100 
L 3047 0 
L 2419 0 
L 2419 1100 
L 313 1100 
L 313 1709 
L 2253 4666 
z
" transform="scale(0.015625)"/>
       </defs>
       <use xlink:href="#DejaVuSans-30"/>
       <use xlink:href="#DejaVuSans-2e" x="63.623047"/>
       <use xlink:href="#DejaVuSans-34" x="95.410156"/>
      </g>
     </g>
    </g>
    <g id="text_14">
     <!-- Frequency -->
     <g transform="translate(61.017187 243.989687) rotate(-90) scale(0.1 -0.1)">
      <defs>
       <path id="DejaVuSans-46" d="M 628 4666 
L 3309 4666 
L 3309 4134 
L 1259 4134 
L 1259 2759 
L 3109 2759 
L 3109 2228 
L 1259 2228 
L 1259 0 
L 628 0 
L 628 4666 
z
" transform="scale(0.015625)"/>
       <path id="DejaVuSans-72" d="M 2631 2963 
Q 2534 3019 2420 3045 
Q 2306 3072 2169 3072 
Q 1681 3072 1420 2755 
Q 1159 2438 1159 1844 
L 1159 0 
L 581 0 
L 581 3500 
L 1159 3500 
L 1159 2956 
Q 1341 3275 1631 3429 
Q 1922 3584 2338 3584 
Q 2397 3584 2469 3576 
Q 2541 3569 2628 3553 
L 2631 2963 
z
" transform="scale(0.015625)"/>
       <path id="DejaVuSans-71" d="M 947 1747 
Q 947 1113 1208 752 
Q 1469 391 1925 391 
Q 2381 391 2643 752 
Q 2906 1113 2906 1747 
Q 2906 2381 2643 2742 
Q 2381 3103 1925 3103 
Q 1469 3103 1208 2742 
Q 947 2381 947 1747 
z
M 2906 525 
Q 2725 213 2448 61 
Q 2172 -91 1784 -91 
Q 1150 -91 751 415 
Q 353 922 353 1747 
Q 353 2572 751 3078 
Q 1150 3584 1784 3584 
Q 2172 3584 2448 3432 
Q 2725 3281 2906 2969 
L 2906 3500 
L 3481 3500 
L 3481 -1331 
L 2906 -1331 
L 2906 525 
z
" transform="scale(0.015625)"/>
       <path id="DejaVuSans-6e" d="M 3513 2113 
L 3513 0 
L 2938 0 
L 2938 2094 
Q 2938 2591 2744 2837 
Q 2550 3084 2163 3084 
Q 1697 3084 1428 2787 
Q 1159 2491 1159 1978 
L 1159 0 
L 581 0 
L 581 3500 
L 1159 3500 
L 1159 2956 
Q 1366 3272 1645 3428 
Q 1925 3584 2291 3584 
Q 2894 3584 3203 3211 
Q 3513 2838 3513 2113 
z
" transform="scale(0.015625)"/>
       <path id="DejaVuSans-63" d="M 3122 3366 
L 3122 2828 
Q 2878 2963 2633 3030 
Q 2388 3097 2138 3097 
Q 1578 3097 1268 2742 
Q 959 2388 959 1747 
Q 959 1106 1268 751 
Q 1578 397 2138 397 
Q 2388 397 2633 464 
Q 2878 531 3122 666 
L 3122 134 
Q 2881 22 2623 -34 
Q 2366 -91 2075 -91 
Q 1284 -91 818 406 
Q 353 903 353 1747 
Q 353 2603 823 3093 
Q 1294 3584 2113 3584 
Q 2378 3584 2631 3529 
Q 2884 3475 3122 3366 
z
" transform="scale(0.015625)"/>
       <path id="DejaVuSans-79" d="M 2059 -325 
Q 1816 -950 1584 -1140 
Q 1353 -1331 966 -1331 
L 506 -1331 
L 506 -850 
L 844 -850 
Q 1081 -850 1212 -737 
Q 1344 -625 1503 -206 
L 1606 56 
L 191 3500 
L 800 3500 
L 1894 763 
L 2988 3500 
L 3597 3500 
L 2059 -325 
z
" transform="scale(0.015625)"/>
      </defs>
      <use xlink:href="#DejaVuSans-46"/>
      <use xlink:href="#DejaVuSans-72" x="50.269531"/>
      <use xlink:href="#DejaVuSans-65" x="89.132812"/>
      <use xlink:href="#DejaVuSans-71" x="150.65625"/>
      <use xlink:href="#DejaVuSans-75" x="214.132812"/>
      <use xlink:href="#DejaVuSans-65" x="277.511719"/>
      <use xlink:href="#DejaVuSans-6e" x="339.035156"/>
      <use xlink:href="#DejaVuSans-63" x="402.414062"/>
      <use xlink:href="#DejaVuSans-79" x="457.394531"/>
     </g>
    </g>
   </g>
   <g id="line2d_13">
    <path d="M 115.363636 383.830288 
L 120.487603 383.666194 
L 125.61157 383.464963 
L 130.735537 383.219323 
L 135.859504 382.920851 
L 140.983471 382.559862 
L 146.107438 382.125285 
L 151.231405 381.60455 
L 156.355372 380.983493 
L 161.479339 380.24626 
L 166.603306 379.37524 
L 171.727273 378.351026 
L 176.85124 377.152406 
L 181.975207 375.756388 
L 187.099174 374.138286 
L 192.22314 372.271847 
L 197.347107 370.129445 
L 202.471074 367.682345 
L 207.595041 364.901027 
L 212.719008 361.755601 
L 217.842975 358.216284 
L 222.966942 354.253963 
L 228.090909 349.840828 
L 233.214876 344.95107 
L 238.338843 339.561641 
L 243.46281 333.65306 
L 248.586777 327.210247 
L 253.710744 320.223373 
L 258.834711 312.688703 
L 263.958678 304.609402 
L 269.082645 295.996288 
L 274.206612 286.868497 
L 279.330579 277.254044 
L 284.454545 267.190234 
L 289.578512 256.723921 
L 294.702479 245.911571 
L 299.826446 234.819126 
L 304.950413 223.521646 
L 310.07438 212.102717 
L 315.198347 200.653634 
L 320.322314 189.272348 
L 325.446281 178.062204 
L 330.570248 167.130473 
L 335.694215 156.586716 
L 340.818182 146.541009 
L 345.942149 137.10206 
L 351.066116 128.375279 
L 356.190083 120.460828 
L 361.31405 113.451721 
L 366.438017 107.432003 
L 371.561983 102.475081 
L 376.68595 98.642228 
L 381.809917 95.981331 
L 386.933884 94.525886 
L 392.057851 94.294306 
L 397.181818 95.289524 
L 402.305785 97.49894 
L 407.429752 100.894677 
L 412.553719 105.434176 
L 417.677686 111.061077 
L 422.801653 117.706386 
L 427.92562 125.289881 
L 433.049587 133.721726 
L 438.173554 142.904233 
L 443.297521 152.733745 
L 448.421488 163.102568 
L 453.545455 173.900917 
L 458.669421 185.018822 
L 463.793388 196.347949 
L 468.917355 207.783289 
L 474.041322 219.224697 
L 479.165289 230.578233 
L 484.289256 241.757294 
L 489.413223 252.683523 
L 494.53719 263.287486 
L 499.661157 273.509115 
L 504.785124 283.297928 
L 509.909091 292.613039 
L 515.033058 301.42297 
L 520.157025 309.705295 
L 525.280992 317.446132 
L 530.404959 324.639513 
L 535.528926 331.286665 
L 540.652893 337.395216 
L 545.77686 342.978365 
L 550.900826 348.054032 
L 556.024793 352.644018 
L 561.14876 356.773181 
L 566.272727 360.468663 
L 571.396694 363.759163 
L 576.520661 366.674282 
L 581.644628 369.24393 
L 586.768595 371.497818 
L 591.892562 373.46502 
L 597.016529 375.173616 
L 602.140496 376.650402 
L 607.264463 377.920673 
L 612.38843 379.008073 
L 617.512397 379.93449 
L 622.636364 380.720014 
" clip-path="url(#p828652939c)" style="fill: none; stroke: #000000; stroke-width: 2; stroke-linecap: square"/>
   </g>
   <g id="patch_33">
    <path d="M 90 384.48 
L 90 51.84 
" style="fill: none; stroke: #000000; stroke-width: 0.8; stroke-linejoin: miter; stroke-linecap: square"/>
   </g>
   <g id="patch_34">
    <path d="M 648 384.48 
L 648 51.84 
" style="fill: none; stroke: #000000; stroke-width: 0.8; stroke-linejoin: miter; stroke-linecap: square"/>
   </g>
   <g id="patch_35">
    <path d="M 90 384.48 
L 648 384.48 
" style="fill: none; stroke: #000000; stroke-width: 0.8; stroke-linejoin: miter; stroke-linecap: square"/>
   </g>
   <g id="patch_36">
    <path d="M 90 51.84 
L 648 51.84 
" style="fill: none; stroke: #000000; stroke-width: 0.8; stroke-linejoin: miter; stroke-linecap: square"/>
   </g>
   <g id="text_15">
    <!-- Gaussian Distribution -->
    <g transform="translate(304.564687 32.402625) scale(0.12 -0.12)">
     <defs>
      <path id="DejaVuSans-47" d="M 3809 666 
L 3809 1919 
L 2778 1919 
L 2778 2438 
L 4434 2438 
L 4434 434 
Q 4069 175 3628 42 
Q 3188 -91 2688 -91 
Q 1594 -91 976 548 
Q 359 1188 359 2328 
Q 359 3472 976 4111 
Q 1594 4750 2688 4750 
Q 3144 4750 3555 4637 
Q 3966 4525 4313 4306 
L 4313 3634 
Q 3963 3931 3569 4081 
Q 3175 4231 2741 4231 
Q 1884 4231 1454 3753 
Q 1025 3275 1025 2328 
Q 1025 1384 1454 906 
Q 1884 428 2741 428 
Q 3075 428 3337 486 
Q 3600 544 3809 666 
z
" transform="scale(0.015625)"/>
      <path id="DejaVuSans-73" d="M 2834 3397 
L 2834 2853 
Q 2591 2978 2328 3040 
Q 2066 3103 1784 3103 
Q 1356 3103 1142 2972 
Q 928 2841 928 2578 
Q 928 2378 1081 2264 
Q 1234 2150 1697 2047 
L 1894 2003 
Q 2506 1872 2764 1633 
Q 3022 1394 3022 966 
Q 3022 478 2636 193 
Q 2250 -91 1575 -91 
Q 1294 -91 989 -36 
Q 684 19 347 128 
L 347 722 
Q 666 556 975 473 
Q 1284 391 1588 391 
Q 1994 391 2212 530 
Q 2431 669 2431 922 
Q 2431 1156 2273 1281 
Q 2116 1406 1581 1522 
L 1381 1569 
Q 847 1681 609 1914 
Q 372 2147 372 2553 
Q 372 3047 722 3315 
Q 1072 3584 1716 3584 
Q 2034 3584 2315 3537 
Q 2597 3491 2834 3397 
z
" transform="scale(0.015625)"/>
      <path id="DejaVuSans-69" d="M 603 3500 
L 1178 3500 
L 1178 0 
L 603 0 
L 603 3500 
z
M 603 4863 
L 1178 4863 
L 1178 4134 
L 603 4134 
L 603 4863 
z
" transform="scale(0.015625)"/>
      <path id="DejaVuSans-20" transform="scale(0.015625)"/>
      <path id="DejaVuSans-44" d="M 1259 4147 
L 1259 519 
L 2022 519 
Q 2988 519 3436 956 
Q 3884 1394 3884 2338 
Q 3884 3275 3436 3711 
Q 2988 4147 2022 4147 
L 1259 4147 
z
M 628 4666 
L 1925 4666 
Q 3281 4666 3915 4102 
Q 4550 3538 4550 2338 
Q 4550 1131 3912 565 
Q 3275 0 1925 0 
L 628 0 
L 628 4666 
z
" transform="scale(0.015625)"/>
      <path id="DejaVuSans-74" d="M 1172 4494 
L 1172 3500 
L 2356 3500 
L 2356 3053 
L 1172 3053 
L 1172 1153 
Q 1172 725 1289 603 
Q 1406 481 1766 481 
L 2356 481 
L 2356 0 
L 1766 0 
Q 1100 0 847 248 
Q 594 497 594 1153 
L 594 3053 
L 172 3053 
L 172 3500 
L 594 3500 
L 594 4494 
L 1172 4494 
z
" transform="scale(0.015625)"/>
      <path id="DejaVuSans-62" d="M 3116 1747 
Q 3116 2381 2855 2742 
Q 2594 3103 2138 3103 
Q 1681 3103 1420 2742 
Q 1159 2381 1159 1747 
Q 1159 1113 1420 752 
Q 1681 391 2138 391 
Q 2594 391 2855 752 
Q 3116 1113 3116 1747 
z
M 1159 2969 
Q 1341 3281 1617 3432 
Q 1894 3584 2278 3584 
Q 2916 3584 3314 3078 
Q 3713 2572 3713 1747 
Q 3713 922 3314 415 
Q 2916 -91 2278 -91 
Q 1894 -91 1617 61 
Q 1341 213 1159 525 
L 1159 0 
L 581 0 
L 581 4863 
L 1159 4863 
L 1159 2969 
z
" transform="scale(0.015625)"/>
      <path id="DejaVuSans-6f" d="M 1959 3097 
Q 1497 3097 1228 2736 
Q 959 2375 959 1747 
Q 959 1119 1226 758 
Q 1494 397 1959 397 
Q 2419 397 2687 759 
Q 2956 1122 2956 1747 
Q 2956 2369 2687 2733 
Q 2419 3097 1959 3097 
z
M 1959 3584 
Q 2709 3584 3137 3096 
Q 3566 2609 3566 1747 
Q 3566 888 3137 398 
Q 2709 -91 1959 -91 
Q 1206 -91 779 398 
Q 353 888 353 1747 
Q 353 2609 779 3096 
Q 1206 3584 1959 3584 
z
" transform="scale(0.015625)"/>
     </defs>
     <use xlink:href="#DejaVuSans-47"/>
     <use xlink:href="#DejaVuSans-61" x="77.490234"/>
     <use xlink:href="#DejaVuSans-75" x="138.769531"/>
     <use xlink:href="#DejaVuSans-73" x="202.148438"/>
     <use xlink:href="#DejaVuSans-73" x="254.248047"/>
     <use xlink:href="#DejaVuSans-69" x="306.347656"/>
     <use xlink:href="#DejaVuSans-61" x="334.130859"/>
     <use xlink:href="#DejaVuSans-6e" x="395.410156"/>
     <use xlink:href="#DejaVuSans-20" x="458.789062"/>
     <use xlink:href="#DejaVuSans-44" x="490.576172"/>
     <use xlink:href="#DejaVuSans-69" x="567.578125"/>
     <use xlink:href="#DejaVuSans-73" x="595.361328"/>
     <use xlink:href="#DejaVuSans-74" x="647.460938"/>
     <use xlink:href="#DejaVuSans-72" x="686.669922"/>
     <use xlink:href="#DejaVuSans-69" x="727.783203"/>
     <use xlink:href="#DejaVuSans-62" x="755.566406"/>
     <use xlink:href="#DejaVuSans-75" x="819.042969"/>
     <use xlink:href="#DejaVuSans-74" x="882.421875"/>
     <use xlink:href="#DejaVuSans-69" x="921.630859"/>
     <use xlink:href="#DejaVuSans-6f" x="949.414062"/>
     <use xlink:href="#DejaVuSans-6e" x="1010.595703"/>
    </g>
    <!-- Mean = 0.00, Std Dev = 1.00 -->
    <g transform="translate(280.695938 45.84) scale(0.12 -0.12)">
     <defs>
      <path id="DejaVuSans-4d" d="M 628 4666 
L 1569 4666 
L 2759 1491 
L 3956 4666 
L 4897 4666 
L 4897 0 
L 4281 0 
L 4281 4097 
L 3078 897 
L 2444 897 
L 1241 4097 
L 1241 0 
L 628 0 
L 628 4666 
z
" transform="scale(0.015625)"/>
      <path id="DejaVuSans-3d" d="M 678 2906 
L 4684 2906 
L 4684 2381 
L 678 2381 
L 678 2906 
z
M 678 1631 
L 4684 1631 
L 4684 1100 
L 678 1100 
L 678 1631 
z
" transform="scale(0.015625)"/>
      <path id="DejaVuSans-2c" d="M 750 794 
L 1409 794 
L 1409 256 
L 897 -744 
L 494 -744 
L 750 256 
L 750 794 
z
" transform="scale(0.015625)"/>
      <path id="DejaVuSans-53" d="M 3425 4513 
L 3425 3897 
Q 3066 4069 2747 4153 
Q 2428 4238 2131 4238 
Q 1616 4238 1336 4038 
Q 1056 3838 1056 3469 
Q 1056 3159 1242 3001 
Q 1428 2844 1947 2747 
L 2328 2669 
Q 3034 2534 3370 2195 
Q 3706 1856 3706 1288 
Q 3706 609 3251 259 
Q 2797 -91 1919 -91 
Q 1588 -91 1214 -16 
Q 841 59 441 206 
L 441 856 
Q 825 641 1194 531 
Q 1563 422 1919 422 
Q 2459 422 2753 634 
Q 3047 847 3047 1241 
Q 3047 1584 2836 1778 
Q 2625 1972 2144 2069 
L 1759 2144 
Q 1053 2284 737 2584 
Q 422 2884 422 3419 
Q 422 4038 858 4394 
Q 1294 4750 2059 4750 
Q 2388 4750 2728 4690 
Q 3069 4631 3425 4513 
z
" transform="scale(0.015625)"/>
      <path id="DejaVuSans-64" d="M 2906 2969 
L 2906 4863 
L 3481 4863 
L 3481 0 
L 2906 0 
L 2906 525 
Q 2725 213 2448 61 
Q 2172 -91 1784 -91 
Q 1150 -91 751 415 
Q 353 922 353 1747 
Q 353 2572 751 3078 
Q 1150 3584 1784 3584 
Q 2172 3584 2448 3432 
Q 2725 3281 2906 2969 
z
M 947 1747 
Q 947 1113 1208 752 
Q 1469 391 1925 391 
Q 2381 391 2643 752 
Q 2906 1113 2906 1747 
Q 2906 2381 2643 2742 
Q 2381 3103 1925 3103 
Q 1469 3103 1208 2742 
Q 947 2381 947 1747 
z
" transform="scale(0.015625)"/>
      <path id="DejaVuSans-76" d="M 191 3500 
L 800 3500 
L 1894 563 
L 2988 3500 
L 3597 3500 
L 2284 0 
L 1503 0 
L 191 3500 
z
" transform="scale(0.015625)"/>
     </defs>
     <use xlink:href="#DejaVuSans-4d"/>
     <use xlink:href="#DejaVuSans-65" x="86.279297"/>
     <use xlink:href="#DejaVuSans-61" x="147.802734"/>
     <use xlink:href="#DejaVuSans-6e" x="209.082031"/>
     <use xlink:href="#DejaVuSans-20" x="272.460938"/>
     <use xlink:href="#DejaVuSans-3d" x="304.248047"/>
     <use xlink:href="#DejaVuSans-20" x="388.037109"/>
     <use xlink:href="#DejaVuSans-30" x="419.824219"/>
     <use xlink:href="#DejaVuSans-2e" x="483.447266"/>
     <use xlink:href="#DejaVuSans-30" x="515.234375"/>
     <use xlink:href="#DejaVuSans-30" x="578.857422"/>
     <use xlink:href="#DejaVuSans-2c" x="642.480469"/>
     <use xlink:href="#DejaVuSans-20" x="674.267578"/>
     <use xlink:href="#DejaVuSans-53" x="706.054688"/>
     <use xlink:href="#DejaVuSans-74" x="769.53125"/>
     <use xlink:href="#DejaVuSans-64" x="808.740234"/>
     <use xlink:href="#DejaVuSans-20" x="872.216797"/>
     <use xlink:href="#DejaVuSans-44" x="904.003906"/>
     <use xlink:href="#DejaVuSans-65" x="981.005859"/>
     <use xlink:href="#DejaVuSans-76" x="1042.529297"/>
     <use xlink:href="#DejaVuSans-20" x="1101.708984"/>
     <use xlink:href="#DejaVuSans-3d" x="1133.496094"/>
     <use xlink:href="#DejaVuSans-20" x="1217.285156"/>
     <use xlink:href="#DejaVuSans-31" x="1249.072266"/>
     <use xlink:href="#DejaVuSans-2e" x="1312.695312"/>
     <use xlink:href="#DejaVuSans-30" x="1344.482422"/>
     <use xlink:href="#DejaVuSans-30" x="1408.105469"/>
    </g>
   </g>
  </g>
 </g>
 <defs>
  <clipPath id="p828652939c">
   <rect x="90" y="51.84" width="558" height="332.64"/>
  </clipPath>
 </defs>
</svg>
