<?xml version="1.0" encoding="utf-8" standalone="no"?>
<!DOCTYPE svg PUBLIC "-//W3C//DTD SVG 1.1//EN"
  "http://www.w3.org/Graphics/SVG/1.1/DTD/svg11.dtd">
<svg xmlns:xlink="http://www.w3.org/1999/xlink" width="243pt" height="150.182259pt" viewBox="0 0 243 150.182259" xmlns="http://www.w3.org/2000/svg" version="1.1">
 <metadata>
  <rdf:RDF xmlns:dc="http://purl.org/dc/elements/1.1/" xmlns:cc="http://creativecommons.org/ns#" xmlns:rdf="http://www.w3.org/1999/02/22-rdf-syntax-ns#">
   <cc:Work>
    <dc:type rdf:resource="http://purl.org/dc/dcmitype/StillImage"/>
    <dc:date>2024-11-01T16:59:51.798702</dc:date>
    <dc:format>image/svg+xml</dc:format>
    <dc:creator>
     <cc:Agent>
      <dc:title>Matplotlib v3.8.2, https://matplotlib.org/</dc:title>
     </cc:Agent>
    </dc:creator>
   </cc:Work>
  </rdf:RDF>
 </metadata>
 <defs>
  <style type="text/css">*{stroke-linejoin: round; stroke-linecap: butt}</style>
 </defs>
 <g id="figure_1">
  <g id="patch_1">
   <path d="M 0 150.182259 
L 243 150.182259 
L 243 0 
L 0 0 
z
" style="fill: #ffffff"/>
  </g>
  <g id="axes_1">
   <g id="patch_2">
    <path d="M 39.545 124.002259 
L 235.44 124.002259 
L 235.44 8.499875 
L 39.545 8.499875 
z
" style="fill: #ffffff"/>
   </g>
   <g id="matplotlib.axis_1">
    <g id="xtick_1">
     <g id="line2d_1">
      <defs>
       <path id="m268ada18e5" d="M 0 0 
L 0 -3.5 
" style="stroke: #000000; stroke-width: 0.8"/>
      </defs>
      <g>
       <use xlink:href="#m268ada18e5" x="48.449318" y="124.002259" style="stroke: #000000; stroke-width: 0.8"/>
      </g>
     </g>
     <g id="text_1">
      <!-- 0.0 -->
      <g transform="translate(43.584318 132.523666) scale(0.07 -0.07)">
       <defs>
        <path id="Helvetica-30" d="M 1731 4475 
Q 2600 4475 2988 3759 
Q 3288 3206 3288 2244 
Q 3288 1331 3016 734 
Q 2622 -122 1728 -122 
Q 922 -122 528 578 
Q 200 1163 200 2147 
Q 200 2909 397 3456 
Q 766 4475 1731 4475 
z
M 1725 391 
Q 2163 391 2422 778 
Q 2681 1166 2681 2222 
Q 2681 2984 2493 3476 
Q 2306 3969 1766 3969 
Q 1269 3969 1039 3501 
Q 809 3034 809 2125 
Q 809 1441 956 1025 
Q 1181 391 1725 391 
z
" transform="scale(0.015625)"/>
        <path id="Helvetica-2e" d="M 547 681 
L 1200 681 
L 1200 0 
L 547 0 
L 547 681 
z
" transform="scale(0.015625)"/>
       </defs>
       <use xlink:href="#Helvetica-30"/>
       <use xlink:href="#Helvetica-2e" x="55.615234"/>
       <use xlink:href="#Helvetica-30" x="83.398438"/>
      </g>
     </g>
    </g>
    <g id="xtick_2">
     <g id="line2d_2">
      <g>
       <use xlink:href="#m268ada18e5" x="78.130379" y="124.002259" style="stroke: #000000; stroke-width: 0.8"/>
      </g>
     </g>
     <g id="text_2">
      <!-- 0.5 -->
      <g transform="translate(73.265379 132.523666) scale(0.07 -0.07)">
       <defs>
        <path id="Helvetica-35" d="M 791 1141 
Q 847 659 1238 475 
Q 1438 381 1700 381 
Q 2200 381 2440 700 
Q 2681 1019 2681 1406 
Q 2681 1875 2395 2131 
Q 2109 2388 1709 2388 
Q 1419 2388 1211 2275 
Q 1003 2163 856 1963 
L 369 1991 
L 709 4400 
L 3034 4400 
L 3034 3856 
L 1131 3856 
L 941 2613 
Q 1097 2731 1238 2791 
Q 1488 2894 1816 2894 
Q 2431 2894 2859 2497 
Q 3288 2100 3288 1491 
Q 3288 856 2895 371 
Q 2503 -113 1644 -113 
Q 1097 -113 676 195 
Q 256 503 206 1141 
L 791 1141 
z
" transform="scale(0.015625)"/>
       </defs>
       <use xlink:href="#Helvetica-30"/>
       <use xlink:href="#Helvetica-2e" x="55.615234"/>
       <use xlink:href="#Helvetica-35" x="83.398438"/>
      </g>
     </g>
    </g>
    <g id="xtick_3">
     <g id="line2d_3">
      <g>
       <use xlink:href="#m268ada18e5" x="107.811439" y="124.002259" style="stroke: #000000; stroke-width: 0.8"/>
      </g>
     </g>
     <g id="text_3">
      <!-- 1.0 -->
      <g transform="translate(102.946439 132.523666) scale(0.07 -0.07)">
       <defs>
        <path id="Helvetica-31" d="M 613 3169 
L 613 3600 
Q 1222 3659 1462 3798 
Q 1703 3938 1822 4456 
L 2266 4456 
L 2266 0 
L 1666 0 
L 1666 3169 
L 613 3169 
z
" transform="scale(0.015625)"/>
       </defs>
       <use xlink:href="#Helvetica-31"/>
       <use xlink:href="#Helvetica-2e" x="55.615234"/>
       <use xlink:href="#Helvetica-30" x="83.398438"/>
      </g>
     </g>
    </g>
    <g id="xtick_4">
     <g id="line2d_4">
      <g>
       <use xlink:href="#m268ada18e5" x="137.4925" y="124.002259" style="stroke: #000000; stroke-width: 0.8"/>
      </g>
     </g>
     <g id="text_4">
      <!-- 1.5 -->
      <g transform="translate(132.6275 132.523666) scale(0.07 -0.07)">
       <use xlink:href="#Helvetica-31"/>
       <use xlink:href="#Helvetica-2e" x="55.615234"/>
       <use xlink:href="#Helvetica-35" x="83.398438"/>
      </g>
     </g>
    </g>
    <g id="xtick_5">
     <g id="line2d_5">
      <g>
       <use xlink:href="#m268ada18e5" x="167.173561" y="124.002259" style="stroke: #000000; stroke-width: 0.8"/>
      </g>
     </g>
     <g id="text_5">
      <!-- 2.0 -->
      <g transform="translate(162.308561 132.523666) scale(0.07 -0.07)">
       <defs>
        <path id="Helvetica-32" d="M 200 0 
Q 231 578 439 1006 
Q 647 1434 1250 1784 
L 1850 2131 
Q 2253 2366 2416 2531 
Q 2672 2791 2672 3125 
Q 2672 3516 2437 3745 
Q 2203 3975 1813 3975 
Q 1234 3975 1013 3538 
Q 894 3303 881 2888 
L 309 2888 
Q 319 3472 525 3841 
Q 891 4491 1816 4491 
Q 2584 4491 2939 4075 
Q 3294 3659 3294 3150 
Q 3294 2613 2916 2231 
Q 2697 2009 2131 1694 
L 1703 1456 
Q 1397 1288 1222 1134 
Q 909 863 828 531 
L 3272 531 
L 3272 0 
L 200 0 
z
" transform="scale(0.015625)"/>
       </defs>
       <use xlink:href="#Helvetica-32"/>
       <use xlink:href="#Helvetica-2e" x="55.615234"/>
       <use xlink:href="#Helvetica-30" x="83.398438"/>
      </g>
     </g>
    </g>
    <g id="xtick_6">
     <g id="line2d_6">
      <g>
       <use xlink:href="#m268ada18e5" x="196.854621" y="124.002259" style="stroke: #000000; stroke-width: 0.8"/>
      </g>
     </g>
     <g id="text_6">
      <!-- 2.5 -->
      <g transform="translate(191.989621 132.523666) scale(0.07 -0.07)">
       <use xlink:href="#Helvetica-32"/>
       <use xlink:href="#Helvetica-2e" x="55.615234"/>
       <use xlink:href="#Helvetica-35" x="83.398438"/>
      </g>
     </g>
    </g>
    <g id="xtick_7">
     <g id="line2d_7">
      <g>
       <use xlink:href="#m268ada18e5" x="226.535682" y="124.002259" style="stroke: #000000; stroke-width: 0.8"/>
      </g>
     </g>
     <g id="text_7">
      <!-- 3.0 -->
      <g transform="translate(221.670682 132.523666) scale(0.07 -0.07)">
       <defs>
        <path id="Helvetica-33" d="M 1663 -122 
Q 869 -122 511 314 
Q 153 750 153 1375 
L 741 1375 
Q 778 941 903 744 
Q 1122 391 1694 391 
Q 2138 391 2406 628 
Q 2675 866 2675 1241 
Q 2675 1703 2392 1887 
Q 2109 2072 1606 2072 
Q 1550 2072 1492 2070 
Q 1434 2069 1375 2066 
L 1375 2563 
Q 1463 2553 1522 2550 
Q 1581 2547 1650 2547 
Q 1966 2547 2169 2647 
Q 2525 2822 2525 3272 
Q 2525 3606 2287 3787 
Q 2050 3969 1734 3969 
Q 1172 3969 956 3594 
Q 838 3388 822 3006 
L 266 3006 
Q 266 3506 466 3856 
Q 809 4481 1675 4481 
Q 2359 4481 2734 4176 
Q 3109 3872 3109 3294 
Q 3109 2881 2888 2625 
Q 2750 2466 2531 2375 
Q 2884 2278 3082 2001 
Q 3281 1725 3281 1325 
Q 3281 684 2859 281 
Q 2438 -122 1663 -122 
z
" transform="scale(0.015625)"/>
       </defs>
       <use xlink:href="#Helvetica-33"/>
       <use xlink:href="#Helvetica-2e" x="55.615234"/>
       <use xlink:href="#Helvetica-30" x="83.398438"/>
      </g>
     </g>
    </g>
    <g id="text_8">
     <!-- Time ($s$) -->
     <g transform="translate(124.5775 139.092728) scale(0.07 -0.07)">
      <defs>
       <path id="Helvetica-54" d="M 3828 4591 
L 3828 4044 
L 2281 4044 
L 2281 0 
L 1650 0 
L 1650 4044 
L 103 4044 
L 103 4591 
L 3828 4591 
z
" transform="scale(0.015625)"/>
       <path id="Helvetica-69" d="M 413 3331 
L 984 3331 
L 984 0 
L 413 0 
L 413 3331 
z
M 413 4591 
L 984 4591 
L 984 3953 
L 413 3953 
L 413 4591 
z
" transform="scale(0.015625)"/>
       <path id="Helvetica-6d" d="M 413 3347 
L 969 3347 
L 969 2872 
Q 1169 3119 1331 3231 
Q 1609 3422 1963 3422 
Q 2363 3422 2606 3225 
Q 2744 3113 2856 2894 
Q 3044 3163 3297 3292 
Q 3550 3422 3866 3422 
Q 4541 3422 4784 2934 
Q 4916 2672 4916 2228 
L 4916 0 
L 4331 0 
L 4331 2325 
Q 4331 2659 4164 2784 
Q 3997 2909 3756 2909 
Q 3425 2909 3186 2687 
Q 2947 2466 2947 1947 
L 2947 0 
L 2375 0 
L 2375 2184 
Q 2375 2525 2294 2681 
Q 2166 2916 1816 2916 
Q 1497 2916 1236 2669 
Q 975 2422 975 1775 
L 975 0 
L 413 0 
L 413 3347 
z
" transform="scale(0.015625)"/>
       <path id="Helvetica-65" d="M 1806 3422 
Q 2163 3422 2497 3255 
Q 2831 3088 3006 2822 
Q 3175 2569 3231 2231 
Q 3281 2000 3281 1494 
L 828 1494 
Q 844 984 1069 676 
Q 1294 369 1766 369 
Q 2206 369 2469 659 
Q 2619 828 2681 1050 
L 3234 1050 
Q 3213 866 3089 639 
Q 2966 413 2813 269 
Q 2556 19 2178 -69 
Q 1975 -119 1719 -119 
Q 1094 -119 659 336 
Q 225 791 225 1609 
Q 225 2416 662 2919 
Q 1100 3422 1806 3422 
z
M 2703 1941 
Q 2669 2306 2544 2525 
Q 2313 2931 1772 2931 
Q 1384 2931 1121 2651 
Q 859 2372 844 1941 
L 2703 1941 
z
M 1753 3428 
L 1753 3428 
z
" transform="scale(0.015625)"/>
       <path id="Helvetica-20" transform="scale(0.015625)"/>
       <path id="Helvetica-28" d="M 1894 4666 
Q 1403 3713 1256 3263 
Q 1034 2578 1034 1681 
Q 1034 775 1288 25 
Q 1444 -438 1903 -1306 
L 1525 -1306 
Q 1069 -594 959 -397 
Q 850 -200 722 138 
Q 547 600 478 1125 
Q 444 1397 444 1644 
Q 444 2569 734 3291 
Q 919 3750 1503 4666 
L 1894 4666 
z
" transform="scale(0.015625)"/>
       <path id="DejaVuSans-Oblique-73" d="M 3200 3397 
L 3091 2853 
Q 2863 2978 2609 3040 
Q 2356 3103 2088 3103 
Q 1634 3103 1373 2948 
Q 1113 2794 1113 2528 
Q 1113 2219 1719 2053 
Q 1766 2041 1788 2034 
L 1972 1978 
Q 2547 1819 2739 1644 
Q 2931 1469 2931 1166 
Q 2931 609 2489 259 
Q 2047 -91 1331 -91 
Q 1053 -91 747 -37 
Q 441 16 72 128 
L 184 722 
Q 500 559 806 475 
Q 1113 391 1394 391 
Q 1816 391 2080 572 
Q 2344 753 2344 1031 
Q 2344 1331 1650 1516 
L 1591 1531 
L 1394 1581 
Q 956 1697 753 1886 
Q 550 2075 550 2369 
Q 550 2928 970 3256 
Q 1391 3584 2113 3584 
Q 2397 3584 2667 3537 
Q 2938 3491 3200 3397 
z
" transform="scale(0.015625)"/>
       <path id="Helvetica-29" d="M 222 -1306 
Q 719 -338 863 106 
Q 1081 778 1081 1681 
Q 1081 2584 828 3334 
Q 672 3797 213 4666 
L 591 4666 
Q 1072 3897 1173 3717 
Q 1275 3538 1394 3222 
Q 1544 2831 1608 2450 
Q 1672 2069 1672 1716 
Q 1672 791 1378 66 
Q 1194 -400 613 -1306 
L 222 -1306 
z
" transform="scale(0.015625)"/>
      </defs>
      <use xlink:href="#Helvetica-54" transform="translate(0 0.09375)"/>
      <use xlink:href="#Helvetica-69" transform="translate(61.083984 0.09375)"/>
      <use xlink:href="#Helvetica-6d" transform="translate(83.300781 0.09375)"/>
      <use xlink:href="#Helvetica-65" transform="translate(166.601562 0.09375)"/>
      <use xlink:href="#Helvetica-20" transform="translate(222.216797 0.09375)"/>
      <use xlink:href="#Helvetica-28" transform="translate(250 0.09375)"/>
      <use xlink:href="#DejaVuSans-Oblique-73" transform="translate(283.300781 0.09375)"/>
      <use xlink:href="#Helvetica-29" transform="translate(335.400391 0.09375)"/>
     </g>
    </g>
   </g>
   <g id="matplotlib.axis_2">
    <g id="ytick_1">
     <g id="line2d_8">
      <defs>
       <path id="m2bb6b88f09" d="M 0 0 
L 3.5 0 
" style="stroke: #000000; stroke-width: 0.8"/>
      </defs>
      <g>
       <use xlink:href="#m2bb6b88f09" x="39.545" y="108.749429" style="stroke: #000000; stroke-width: 0.8"/>
      </g>
     </g>
     <g id="text_9">
      <!-- −0.010 -->
      <g transform="translate(14.44125 111.260132) scale(0.07 -0.07)">
       <defs>
        <path id="Helvetica-2212" d="M 3547 1894 
L 3547 1369 
L 288 1369 
L 288 1894 
L 3547 1894 
z
" transform="scale(0.015625)"/>
       </defs>
       <use xlink:href="#Helvetica-2212"/>
       <use xlink:href="#Helvetica-30" x="58.398438"/>
       <use xlink:href="#Helvetica-2e" x="114.013672"/>
       <use xlink:href="#Helvetica-30" x="141.796875"/>
       <use xlink:href="#Helvetica-31" x="197.412109"/>
       <use xlink:href="#Helvetica-30" x="253.027344"/>
      </g>
     </g>
    </g>
    <g id="ytick_2">
     <g id="line2d_9">
      <g>
       <use xlink:href="#m2bb6b88f09" x="39.545" y="89.051123" style="stroke: #000000; stroke-width: 0.8"/>
      </g>
     </g>
     <g id="text_10">
      <!-- −0.005 -->
      <g transform="translate(14.44125 91.561827) scale(0.07 -0.07)">
       <use xlink:href="#Helvetica-2212"/>
       <use xlink:href="#Helvetica-30" x="58.398438"/>
       <use xlink:href="#Helvetica-2e" x="114.013672"/>
       <use xlink:href="#Helvetica-30" x="141.796875"/>
       <use xlink:href="#Helvetica-30" x="197.412109"/>
       <use xlink:href="#Helvetica-35" x="253.027344"/>
      </g>
     </g>
    </g>
    <g id="ytick_3">
     <g id="line2d_10">
      <g>
       <use xlink:href="#m2bb6b88f09" x="39.545" y="69.352818" style="stroke: #000000; stroke-width: 0.8"/>
      </g>
     </g>
     <g id="text_11">
      <!-- 0.000 -->
      <g transform="translate(18.529688 71.863521) scale(0.07 -0.07)">
       <use xlink:href="#Helvetica-30"/>
       <use xlink:href="#Helvetica-2e" x="55.615234"/>
       <use xlink:href="#Helvetica-30" x="83.398438"/>
       <use xlink:href="#Helvetica-30" x="139.013672"/>
       <use xlink:href="#Helvetica-30" x="194.628906"/>
      </g>
     </g>
    </g>
    <g id="ytick_4">
     <g id="line2d_11">
      <g>
       <use xlink:href="#m2bb6b88f09" x="39.545" y="49.654512" style="stroke: #000000; stroke-width: 0.8"/>
      </g>
     </g>
     <g id="text_12">
      <!-- 0.005 -->
      <g transform="translate(18.529688 52.165215) scale(0.07 -0.07)">
       <use xlink:href="#Helvetica-30"/>
       <use xlink:href="#Helvetica-2e" x="55.615234"/>
       <use xlink:href="#Helvetica-30" x="83.398438"/>
       <use xlink:href="#Helvetica-30" x="139.013672"/>
       <use xlink:href="#Helvetica-35" x="194.628906"/>
      </g>
     </g>
    </g>
    <g id="ytick_5">
     <g id="line2d_12">
      <g>
       <use xlink:href="#m2bb6b88f09" x="39.545" y="29.956206" style="stroke: #000000; stroke-width: 0.8"/>
      </g>
     </g>
     <g id="text_13">
      <!-- 0.010 -->
      <g transform="translate(18.529688 32.466909) scale(0.07 -0.07)">
       <use xlink:href="#Helvetica-30"/>
       <use xlink:href="#Helvetica-2e" x="55.615234"/>
       <use xlink:href="#Helvetica-30" x="83.398438"/>
       <use xlink:href="#Helvetica-31" x="139.013672"/>
       <use xlink:href="#Helvetica-30" x="194.628906"/>
      </g>
     </g>
    </g>
    <g id="ytick_6">
     <g id="line2d_13">
      <g>
       <use xlink:href="#m2bb6b88f09" x="39.545" y="10.2579" style="stroke: #000000; stroke-width: 0.8"/>
      </g>
     </g>
     <g id="text_14">
      <!-- 0.015 -->
      <g transform="translate(18.529688 12.768603) scale(0.07 -0.07)">
       <use xlink:href="#Helvetica-30"/>
       <use xlink:href="#Helvetica-2e" x="55.615234"/>
       <use xlink:href="#Helvetica-30" x="83.398438"/>
       <use xlink:href="#Helvetica-31" x="139.013672"/>
       <use xlink:href="#Helvetica-35" x="194.628906"/>
      </g>
     </g>
    </g>
    <g id="text_15">
     <!-- Laser Intensity -->
     <g transform="translate(12.940625 89.011458) rotate(-90) scale(0.07 -0.07)">
      <defs>
       <path id="Helvetica-4c" d="M 488 4591 
L 1109 4591 
L 1109 547 
L 3434 547 
L 3434 0 
L 488 0 
L 488 4591 
z
" transform="scale(0.015625)"/>
       <path id="Helvetica-61" d="M 844 891 
Q 844 647 1022 506 
Q 1200 366 1444 366 
Q 1741 366 2019 503 
Q 2488 731 2488 1250 
L 2488 1703 
Q 2384 1638 2221 1594 
Q 2059 1550 1903 1531 
L 1563 1488 
Q 1256 1447 1103 1359 
Q 844 1213 844 891 
z
M 2206 2028 
Q 2400 2053 2466 2191 
Q 2503 2266 2503 2406 
Q 2503 2694 2298 2823 
Q 2094 2953 1713 2953 
Q 1272 2953 1088 2716 
Q 984 2584 953 2325 
L 428 2325 
Q 444 2944 830 3186 
Q 1216 3428 1725 3428 
Q 2316 3428 2684 3203 
Q 3050 2978 3050 2503 
L 3050 575 
Q 3050 488 3086 434 
Q 3122 381 3238 381 
Q 3275 381 3322 386 
Q 3369 391 3422 400 
L 3422 -16 
Q 3291 -53 3222 -62 
Q 3153 -72 3034 -72 
Q 2744 -72 2613 134 
Q 2544 244 2516 444 
Q 2344 219 2022 53 
Q 1700 -113 1313 -113 
Q 847 -113 551 170 
Q 256 453 256 878 
Q 256 1344 547 1600 
Q 838 1856 1309 1916 
L 2206 2028 
z
M 1741 3428 
L 1741 3428 
z
" transform="scale(0.015625)"/>
       <path id="Helvetica-73" d="M 747 1050 
Q 772 769 888 619 
Q 1100 347 1625 347 
Q 1938 347 2175 483 
Q 2413 619 2413 903 
Q 2413 1119 2222 1231 
Q 2100 1300 1741 1391 
L 1294 1503 
Q 866 1609 663 1741 
Q 300 1969 300 2372 
Q 300 2847 642 3140 
Q 984 3434 1563 3434 
Q 2319 3434 2653 2991 
Q 2863 2709 2856 2384 
L 2325 2384 
Q 2309 2575 2191 2731 
Q 1997 2953 1519 2953 
Q 1200 2953 1036 2831 
Q 872 2709 872 2509 
Q 872 2291 1088 2159 
Q 1213 2081 1456 2022 
L 1828 1931 
Q 2434 1784 2641 1647 
Q 2969 1431 2969 969 
Q 2969 522 2630 197 
Q 2291 -128 1597 -128 
Q 850 -128 539 211 
Q 228 550 206 1050 
L 747 1050 
z
M 1578 3428 
L 1578 3428 
z
" transform="scale(0.015625)"/>
       <path id="Helvetica-72" d="M 428 3347 
L 963 3347 
L 963 2769 
Q 1028 2938 1284 3180 
Q 1541 3422 1875 3422 
Q 1891 3422 1928 3419 
Q 1966 3416 2056 3406 
L 2056 2813 
Q 2006 2822 1964 2825 
Q 1922 2828 1872 2828 
Q 1447 2828 1219 2554 
Q 991 2281 991 1925 
L 991 0 
L 428 0 
L 428 3347 
z
" transform="scale(0.015625)"/>
       <path id="Helvetica-49" d="M 628 4591 
L 1256 4591 
L 1256 0 
L 628 0 
L 628 4591 
z
" transform="scale(0.015625)"/>
       <path id="Helvetica-6e" d="M 413 3347 
L 947 3347 
L 947 2872 
Q 1184 3166 1450 3294 
Q 1716 3422 2041 3422 
Q 2753 3422 3003 2925 
Q 3141 2653 3141 2147 
L 3141 0 
L 2569 0 
L 2569 2109 
Q 2569 2416 2478 2603 
Q 2328 2916 1934 2916 
Q 1734 2916 1606 2875 
Q 1375 2806 1200 2600 
Q 1059 2434 1017 2257 
Q 975 2081 975 1753 
L 975 0 
L 413 0 
L 413 3347 
z
M 1734 3428 
L 1734 3428 
z
" transform="scale(0.015625)"/>
       <path id="Helvetica-74" d="M 525 4281 
L 1094 4281 
L 1094 3347 
L 1628 3347 
L 1628 2888 
L 1094 2888 
L 1094 703 
Q 1094 528 1213 469 
Q 1278 434 1431 434 
Q 1472 434 1519 436 
Q 1566 438 1628 444 
L 1628 0 
Q 1531 -28 1426 -40 
Q 1322 -53 1200 -53 
Q 806 -53 665 148 
Q 525 350 525 672 
L 525 2888 
L 72 2888 
L 72 3347 
L 525 3347 
L 525 4281 
z
" transform="scale(0.015625)"/>
       <path id="Helvetica-79" d="M 2503 3347 
L 3125 3347 
Q 3006 3025 2597 1878 
Q 2291 1016 2084 472 
Q 1597 -809 1397 -1090 
Q 1197 -1372 709 -1372 
Q 591 -1372 527 -1362 
Q 463 -1353 369 -1328 
L 369 -816 
Q 516 -856 581 -865 
Q 647 -875 697 -875 
Q 853 -875 926 -823 
Q 1000 -772 1050 -697 
Q 1066 -672 1162 -440 
Q 1259 -209 1303 -97 
L 66 3347 
L 703 3347 
L 1600 622 
L 2503 3347 
z
M 1597 3428 
L 1597 3428 
z
" transform="scale(0.015625)"/>
      </defs>
      <use xlink:href="#Helvetica-4c"/>
      <use xlink:href="#Helvetica-61" x="55.615234"/>
      <use xlink:href="#Helvetica-73" x="111.230469"/>
      <use xlink:href="#Helvetica-65" x="161.230469"/>
      <use xlink:href="#Helvetica-72" x="216.845703"/>
      <use xlink:href="#Helvetica-20" x="250.146484"/>
      <use xlink:href="#Helvetica-49" x="277.929688"/>
      <use xlink:href="#Helvetica-6e" x="305.712891"/>
      <use xlink:href="#Helvetica-74" x="361.328125"/>
      <use xlink:href="#Helvetica-65" x="389.111328"/>
      <use xlink:href="#Helvetica-6e" x="444.726562"/>
      <use xlink:href="#Helvetica-73" x="500.341797"/>
      <use xlink:href="#Helvetica-69" x="550.341797"/>
      <use xlink:href="#Helvetica-74" x="572.558594"/>
      <use xlink:href="#Helvetica-79" x="600.341797"/>
     </g>
    </g>
   </g>
   <g id="line2d_14">
    <path d="M 48.449318 44.022071 
L 48.5087 31.60408 
L 48.627464 53.605889 
L 48.746228 38.666582 
L 48.80561 57.364776 
L 48.864992 49.2182 
L 48.924374 41.94377 
L 49.043137 56.85479 
L 49.161901 47.552085 
L 49.340047 57.910722 
L 49.399429 41.840813 
L 49.518193 65.112096 
L 49.696338 49.83518 
L 49.75572 57.578473 
L 49.815102 48.165723 
L 49.874484 56.025122 
L 49.933866 55.439614 
L 49.993248 53.688146 
L 50.05263 45.616848 
L 50.112012 51.282956 
L 50.171394 45.969479 
L 50.290158 57.635965 
L 50.349539 49.663062 
L 50.408921 51.938344 
L 50.468303 68.053752 
L 50.587067 38.321614 
L 50.765213 66.199894 
L 50.883977 35.442416 
L 50.943359 42.876329 
L 51.002741 45.745711 
L 51.062122 34.36315 
L 51.121504 42.351624 
L 51.240268 56.29159 
L 51.29965 36.868939 
L 51.477796 58.831932 
L 51.655942 48.340861 
L 51.774705 72.030474 
L 51.893469 51.423737 
L 51.952851 59.778157 
L 52.012233 44.276587 
L 52.071615 46.981666 
L 52.190379 44.48323 
L 52.249761 45.827827 
L 52.309143 58.229003 
L 52.487288 39.605125 
L 52.606052 59.413647 
L 52.665434 57.527649 
L 52.724816 43.756334 
L 52.784198 46.204889 
L 52.84358 48.73348 
L 52.962344 39.302019 
L 53.081108 53.233509 
L 53.140489 50.941607 
L 53.259253 39.488937 
L 53.318635 52.726187 
L 53.378017 44.05579 
L 53.437399 46.823365 
L 53.496781 34.55268 
L 53.556163 48.019771 
L 53.615545 35.832208 
L 53.674927 50.117845 
L 53.734309 25.077852 
L 53.793691 35.762199 
L 53.912454 53.063156 
L 53.971836 22.529073 
L 54.031218 54.732996 
L 54.0906 50.854716 
L 54.209364 38.483235 
L 54.328128 49.416739 
L 54.38751 32.809203 
L 54.446892 37.691603 
L 54.506274 46.764044 
L 54.565655 32.706926 
L 54.625037 33.633801 
L 54.743801 42.992334 
L 54.803183 34.276591 
L 54.921947 49.602398 
L 54.981329 37.168727 
L 55.040711 46.659049 
L 55.100093 38.343331 
L 55.159475 50.192864 
L 55.218857 32.181324 
L 55.278238 48.830323 
L 55.33762 44.902763 
L 55.456384 35.346854 
L 55.515766 40.090983 
L 55.575148 29.230302 
L 55.753294 47.460297 
L 55.812676 39.627794 
L 55.872058 40.106183 
L 55.931439 46.45806 
L 55.990821 39.570561 
L 56.050203 39.991257 
L 56.109585 61.384581 
L 56.168967 51.722667 
L 56.287731 40.058422 
L 56.465877 59.85496 
L 56.525259 38.194301 
L 56.584641 41.80446 
L 56.644022 41.453446 
L 56.703404 26.607209 
L 56.762786 38.560012 
L 56.88155 53.235024 
L 57.059696 29.821763 
L 57.297224 55.17102 
L 57.415987 25.946006 
L 57.534751 53.131991 
L 57.594133 35.12194 
L 57.653515 36.225669 
L 57.712897 41.796268 
L 57.772279 38.328551 
L 57.831661 37.711568 
L 57.891043 55.085168 
L 57.950425 42.125583 
L 58.009807 34.371182 
L 58.12857 46.012908 
L 58.187952 34.876568 
L 58.247334 36.975664 
L 58.306716 44.271445 
L 58.366098 41.237658 
L 58.42548 34.110044 
L 58.603626 51.084558 
L 58.663008 55.055499 
L 58.841153 38.033245 
L 59.019299 48.898992 
L 59.256827 23.860044 
L 59.316209 45.049074 
L 59.375591 42.197976 
L 59.434972 38.579243 
L 59.494354 40.077177 
L 59.553736 41.313615 
L 59.613118 23.655377 
L 59.6725 31.006066 
L 59.731882 47.649853 
L 59.791264 36.662546 
L 59.850646 44.787488 
L 59.910028 39.573421 
L 59.96941 38.12715 
L 60.028792 28.157399 
L 60.147555 64.124132 
L 60.266319 56.941139 
L 60.385083 31.959815 
L 60.444465 35.24614 
L 60.503847 37.123746 
L 60.563229 31.656244 
L 60.622611 47.149977 
L 60.681993 26.627686 
L 60.741375 51.094825 
L 60.800757 37.867541 
L 60.860138 24.595299 
L 61.038284 45.989493 
L 61.157048 48.009473 
L 61.21643 31.210064 
L 61.275812 40.320759 
L 61.453958 47.368272 
L 61.572721 54.008474 
L 61.691485 31.431535 
L 61.750867 34.124279 
L 61.810249 57.825471 
L 61.869631 43.656849 
L 61.929013 38.745713 
L 61.988395 42.230986 
L 62.047777 39.914838 
L 62.107159 31.254829 
L 62.225923 48.84834 
L 62.285304 45.596406 
L 62.344686 34.756468 
L 62.404068 41.329384 
L 62.46345 40.177454 
L 62.522832 30.825727 
L 62.582214 32.927752 
L 62.700978 49.652689 
L 62.76036 48.924335 
L 62.819742 35.629151 
L 62.879124 40.958878 
L 62.938505 51.224112 
L 62.997887 39.81199 
L 63.116651 59.999206 
L 63.176033 56.547837 
L 63.235415 43.443848 
L 63.294797 59.323567 
L 63.354179 46.884879 
L 63.413561 34.002246 
L 63.472943 52.551481 
L 63.532325 44.630998 
L 63.651088 39.71027 
L 63.71047 50.521575 
L 63.769852 30.926928 
L 63.829234 40.373207 
L 64.00738 59.051158 
L 64.185526 36.897507 
L 64.30429 50.965127 
L 64.363671 41.489023 
L 64.423053 43.374743 
L 64.482435 45.176419 
L 64.541817 43.27617 
L 64.660581 48.878009 
L 64.779345 34.043062 
L 64.957491 56.109221 
L 65.016873 51.788527 
L 65.076254 48.271297 
L 65.135636 52.486416 
L 65.313782 39.41499 
L 65.373164 35.541898 
L 65.432546 44.210423 
L 65.491928 43.013382 
L 65.55131 29.353223 
L 65.610692 51.72517 
L 65.670074 41.772641 
L 65.729456 25.689842 
L 65.788837 39.017137 
L 65.907601 47.837802 
L 66.085747 28.729832 
L 66.145129 47.892891 
L 66.204511 32.37755 
L 66.323275 39.219437 
L 66.442038 39.105757 
L 66.50142 20.5946 
L 66.560802 50.170165 
L 66.620184 13.749983 
L 66.679566 42.212478 
L 66.738948 35.7399 
L 66.79833 37.929742 
L 66.857712 42.928107 
L 66.917094 20.379441 
L 67.09524 50.093973 
L 67.154621 32.657254 
L 67.214003 58.444942 
L 67.273385 30.202491 
L 67.332767 48.706736 
L 67.451531 34.211936 
L 67.510913 57.511091 
L 67.570295 47.396461 
L 67.689059 26.242728 
L 67.748441 38.907795 
L 67.807823 35.057818 
L 67.985968 43.473919 
L 68.04535 40.578274 
L 68.104732 48.894031 
L 68.164114 43.108365 
L 68.223496 30.716732 
L 68.282878 55.313502 
L 68.34226 32.958876 
L 68.401642 58.711698 
L 68.520406 24.594968 
L 68.579787 44.026497 
L 68.639169 43.25875 
L 68.698551 25.879399 
L 68.757933 27.102556 
L 68.876697 48.76941 
L 68.936079 42.057999 
L 68.995461 52.402414 
L 69.054843 44.899032 
L 69.114225 49.933736 
L 69.173607 21.910119 
L 69.232988 46.986106 
L 69.29237 45.169532 
L 69.351752 40.416353 
L 69.411134 40.685698 
L 69.58928 54.493609 
L 69.648662 36.122469 
L 69.708044 40.161713 
L 69.88619 33.545236 
L 69.945571 47.549366 
L 70.004953 36.073224 
L 70.064335 34.966144 
L 70.123717 48.809141 
L 70.183099 44.129829 
L 70.301863 37.727834 
L 70.361245 40.911579 
L 70.480009 22.369121 
L 70.658154 53.841036 
L 70.717536 27.93175 
L 70.776918 49.697547 
L 70.955064 24.53617 
L 71.014446 30.848031 
L 71.192592 41.312199 
L 71.251974 21.016779 
L 71.311356 34.07394 
L 71.370737 34.806145 
L 71.430119 45.110218 
L 71.489501 37.006016 
L 71.548883 41.696565 
L 71.608265 30.713219 
L 71.727029 54.133715 
L 71.905175 37.2538 
L 71.964557 35.887705 
L 72.023939 30.007373 
L 72.142702 48.571763 
L 72.202084 33.684161 
L 72.261466 44.688879 
L 72.439612 29.566968 
L 72.498994 45.430998 
L 72.558376 43.329583 
L 72.736521 26.844528 
L 72.914667 56.316706 
L 72.974049 51.071642 
L 73.033431 34.652527 
L 73.092813 41.162889 
L 73.211577 44.718814 
L 73.330341 31.262812 
L 73.389723 42.199337 
L 73.449104 27.893953 
L 73.508486 51.772953 
L 73.567868 40.124196 
L 73.62725 39.8941 
L 73.746014 32.281255 
L 73.92416 44.437426 
L 73.983542 41.289736 
L 74.042924 31.200521 
L 74.102306 37.996053 
L 74.161687 32.045179 
L 74.221069 51.858177 
L 74.280451 21.868072 
L 74.339833 36.599474 
L 74.399215 36.537361 
L 74.458597 34.773652 
L 74.517979 43.272224 
L 74.577361 30.382008 
L 74.636743 51.882579 
L 74.696125 33.680735 
L 74.755507 41.412399 
L 74.814889 36.36117 
L 74.87427 37.282174 
L 74.933652 52.278038 
L 74.993034 23.836518 
L 75.052416 47.961556 
L 75.111798 50.271363 
L 75.230562 23.543238 
L 75.289944 35.335998 
L 75.408708 40.938442 
L 75.46809 34.258013 
L 75.527472 36.197775 
L 75.586853 50.855073 
L 75.764999 24.246328 
L 75.883763 37.058438 
L 75.943145 36.38367 
L 76.002527 24.241497 
L 76.061909 41.935705 
L 76.121291 41.619272 
L 76.180673 36.933896 
L 76.240054 41.258894 
L 76.299436 24.639489 
L 76.358818 37.206408 
L 76.4182 48.500031 
L 76.536964 33.75308 
L 76.596346 60.549841 
L 76.655728 27.816073 
L 76.71511 49.106194 
L 76.893256 35.72891 
L 76.952637 48.355297 
L 77.012019 28.439391 
L 77.071401 50.645425 
L 77.130783 38.293333 
L 77.190165 30.085604 
L 77.249547 35.301398 
L 77.308929 40.722131 
L 77.368311 31.880433 
L 77.427693 49.578092 
L 77.487075 28.858716 
L 77.546457 43.400108 
L 77.605839 42.957775 
L 77.66522 55.609617 
L 77.843366 37.51009 
L 77.902748 36.149492 
L 77.96213 36.752548 
L 78.021512 43.866225 
L 78.140276 29.61428 
L 78.199658 48.703868 
L 78.25904 41.1232 
L 78.318422 29.474001 
L 78.377803 42.270605 
L 78.437185 37.113419 
L 78.496567 35.699404 
L 78.555949 24.424428 
L 78.674713 46.715478 
L 78.734095 33.011492 
L 78.793477 41.234415 
L 78.852859 36.454434 
L 78.912241 49.795029 
L 79.090386 30.172631 
L 79.149768 46.465752 
L 79.20915 39.125694 
L 79.268532 30.172345 
L 79.327914 34.584406 
L 79.387296 57.858865 
L 79.50606 35.749736 
L 79.565442 47.436111 
L 79.624824 31.753785 
L 79.684206 47.64506 
L 79.743587 42.239664 
L 79.802969 24.305804 
L 79.981115 50.743765 
L 80.099879 35.051894 
L 80.159261 37.750616 
L 80.218643 43.15602 
L 80.278025 39.405466 
L 80.337407 39.296594 
L 80.396789 44.30162 
L 80.45617 42.056986 
L 80.515552 34.808119 
L 80.574934 36.934503 
L 80.693698 52.814536 
L 80.75308 34.091336 
L 80.812462 39.265271 
L 80.871844 49.675616 
L 80.931226 41.455558 
L 81.109372 29.726243 
L 81.228135 45.467378 
L 81.287517 41.964033 
L 81.346899 43.78809 
L 81.406281 42.60743 
L 81.465663 52.398641 
L 81.643809 36.909076 
L 81.703191 47.62808 
L 81.821955 26.094683 
L 81.881336 47.911963 
L 81.940718 38.867996 
L 82.118864 55.524989 
L 82.178246 29.45509 
L 82.237628 34.710884 
L 82.356392 55.288334 
L 82.415774 44.626562 
L 82.475156 41.397434 
L 82.534537 51.873266 
L 82.653301 37.029658 
L 82.712683 42.378255 
L 82.772065 16.726941 
L 82.831447 43.934677 
L 82.890829 31.515724 
L 83.068975 56.025431 
L 83.128357 35.264295 
L 83.187739 44.295353 
L 83.365884 49.891831 
L 83.425266 42.560869 
L 83.484648 58.741205 
L 83.54403 47.447713 
L 83.603412 52.34246 
L 83.662794 38.719407 
L 83.722176 41.987392 
L 83.781558 37.809032 
L 83.959703 47.311902 
L 84.078467 35.142008 
L 84.137849 37.781513 
L 84.197231 59.275005 
L 84.256613 33.651916 
L 84.315995 52.751784 
L 84.375377 37.469761 
L 84.434759 48.600908 
L 84.553523 30.79418 
L 84.731668 50.130279 
L 84.79105 39.590479 
L 84.850432 53.064736 
L 84.909814 51.922015 
L 84.969196 37.016362 
L 85.028578 51.791002 
L 85.206724 35.771005 
L 85.266106 37.488629 
L 85.325488 35.709617 
L 85.384869 48.837363 
L 85.444251 33.225931 
L 85.503633 57.805553 
L 85.681779 24.928524 
L 85.800543 49.126717 
L 85.859925 43.02886 
L 85.919307 37.206642 
L 85.978689 38.781773 
L 86.03807 50.745552 
L 86.156834 34.708868 
L 86.394362 51.510386 
L 86.453744 30.227028 
L 86.513126 35.878186 
L 86.572508 39.1554 
L 86.63189 48.570337 
L 86.750653 35.405074 
L 86.810035 35.863684 
L 86.869417 46.817488 
L 86.928799 31.270374 
L 86.988181 62.136159 
L 87.047563 49.966955 
L 87.106945 49.865607 
L 87.285091 43.123042 
L 87.344473 52.107318 
L 87.522618 38.760045 
L 87.582 44.445005 
L 87.641382 34.372161 
L 87.700764 54.488732 
L 87.760146 39.559405 
L 87.819528 46.298502 
L 87.87891 32.040633 
L 88.057056 59.29445 
L 88.175819 41.077919 
L 88.235201 43.225222 
L 88.294583 53.368498 
L 88.353965 43.915533 
L 88.413347 56.078729 
L 88.472729 52.667565 
L 88.532111 54.223353 
L 88.650875 44.87096 
L 88.710257 70.188658 
L 88.769639 52.324361 
L 88.829021 57.923768 
L 89.007166 43.9949 
L 89.12593 60.022703 
L 89.185312 43.014602 
L 89.244694 45.073196 
L 89.304076 68.006105 
L 89.363458 41.208784 
L 89.42284 60.931976 
L 89.482222 60.532968 
L 89.541603 57.223913 
L 89.600985 60.420103 
L 89.779131 40.185851 
L 89.957277 61.01434 
L 90.135423 46.704913 
L 90.194805 59.481062 
L 90.254186 40.647741 
L 90.313568 46.747446 
L 90.37295 38.686838 
L 90.491714 59.825283 
L 90.551096 49.828436 
L 90.610478 56.641412 
L 90.66986 51.845345 
L 90.729242 52.36544 
L 90.788624 54.80175 
L 90.907388 46.993924 
L 90.966769 61.798363 
L 91.026151 57.498981 
L 91.085533 45.701552 
L 91.144915 63.935125 
L 91.204297 53.532639 
L 91.263679 49.14959 
L 91.323061 61.7496 
L 91.382443 59.068328 
L 91.501207 50.943319 
L 91.560589 55.348719 
L 91.619971 48.525497 
L 91.679352 76.293791 
L 91.738734 66.256871 
L 91.857498 52.10925 
L 91.91688 54.892519 
L 92.035644 58.275538 
L 92.095026 51.528412 
L 92.21379 77.762937 
L 92.391935 45.553797 
L 92.629463 70.068636 
L 92.748227 41.331322 
L 92.807609 56.960331 
L 92.866991 48.818984 
L 92.926373 47.531743 
L 92.985755 56.365995 
L 93.045136 53.077168 
L 93.1639 61.770433 
L 93.223282 77.605727 
L 93.282664 69.354723 
L 93.46081 55.185617 
L 93.520192 67.864833 
L 93.579574 53.546943 
L 93.638956 60.574159 
L 93.698338 52.640717 
L 93.757719 64.426942 
L 93.817101 64.132295 
L 93.876483 63.082617 
L 94.054629 73.426793 
L 94.114011 54.438212 
L 94.173393 55.691514 
L 94.232775 73.476691 
L 94.292157 58.240688 
L 94.351539 58.156926 
L 94.410921 50.502283 
L 94.589066 69.692319 
L 94.648448 69.481011 
L 94.885976 49.938633 
L 94.945358 76.595268 
L 95.00474 48.483302 
L 95.064122 55.788183 
L 95.182885 67.251595 
L 95.242267 58.460792 
L 95.420413 82.258015 
L 95.598559 57.729324 
L 95.717323 86.348529 
L 95.776705 64.944946 
L 95.836086 70.319787 
L 95.895468 80.696584 
L 96.073614 55.74935 
L 96.132996 60.461559 
L 96.192378 55.22117 
L 96.25176 57.859102 
L 96.311142 85.24584 
L 96.370524 66.17444 
L 96.429906 70.316074 
L 96.489288 66.097068 
L 96.548669 68.847623 
L 96.608051 72.355472 
L 96.667433 63.886684 
L 96.845579 80.090169 
L 96.964343 64.930425 
L 97.083107 75.910521 
L 97.142489 64.946925 
L 97.201871 81.546377 
L 97.261252 62.830611 
L 97.320634 71.952238 
L 97.380016 75.812899 
L 97.439398 71.545003 
L 97.49878 58.795183 
L 97.558162 69.227124 
L 97.617544 69.092133 
L 97.676926 67.516891 
L 97.855072 82.347847 
L 97.973835 61.871748 
L 98.033217 65.231674 
L 98.151981 84.590864 
L 98.211363 78.908056 
L 98.270745 59.538114 
L 98.330127 79.246043 
L 98.389509 66.444333 
L 98.448891 50.315823 
L 98.508273 63.501596 
L 98.627037 88.872739 
L 98.686418 75.922005 
L 98.7458 60.830855 
L 98.805182 67.904381 
L 98.983328 78.088774 
L 99.04271 75.84639 
L 99.102092 66.55961 
L 99.161474 80.177919 
L 99.220856 70.259647 
L 99.280238 76.767211 
L 99.339619 59.873071 
L 99.399001 68.422807 
L 99.458383 63.527257 
L 99.636529 82.367667 
L 99.755293 67.431834 
L 99.814675 75.364375 
L 99.874057 69.887938 
L 100.052202 76.26785 
L 100.111584 70.550536 
L 100.170966 84.549476 
L 100.230348 79.760967 
L 100.28973 65.394638 
L 100.349112 65.642492 
L 100.408494 73.421671 
L 100.467876 70.61512 
L 100.527258 65.075222 
L 100.58664 81.968457 
L 100.646022 65.742001 
L 100.705404 86.916032 
L 100.764785 73.944396 
L 100.824167 74.784168 
L 100.883549 59.3084 
L 100.942931 71.297599 
L 101.002313 60.965157 
L 101.061695 72.008686 
L 101.121077 69.973266 
L 101.180459 69.051825 
L 101.299223 76.304685 
L 101.358605 68.29133 
L 101.417987 76.654459 
L 101.477368 68.582582 
L 101.53675 71.786608 
L 101.596132 74.652416 
L 101.655514 55.015574 
L 101.714896 91.826416 
L 101.774278 81.888439 
L 101.893042 68.541007 
L 102.011806 83.819683 
L 102.071188 81.837068 
L 102.13057 70.810615 
L 102.189951 72.613226 
L 102.249333 74.883453 
L 102.308715 89.914634 
L 102.368097 53.950715 
L 102.427479 77.05965 
L 102.486861 78.291136 
L 102.546243 63.895506 
L 102.605625 88.83714 
L 102.665007 71.991451 
L 102.724389 58.960518 
L 102.783771 65.786424 
L 102.843152 77.964872 
L 102.902534 71.035255 
L 102.961916 76.353995 
L 103.021298 67.084844 
L 103.08068 81.690327 
L 103.140062 81.328342 
L 103.258826 74.077217 
L 103.318208 75.948483 
L 103.37759 69.161545 
L 103.436972 77.385456 
L 103.496354 65.695861 
L 103.674499 84.99315 
L 103.733881 61.411387 
L 103.793263 80.157422 
L 103.912027 63.592283 
L 103.971409 70.508852 
L 104.030791 76.880353 
L 104.090173 71.022464 
L 104.208937 78.884181 
L 104.268318 67.000044 
L 104.3277 73.816424 
L 104.505846 91.460793 
L 104.565228 68.147239 
L 104.62461 76.515862 
L 104.683992 69.473127 
L 104.802756 81.398922 
L 104.862138 67.084799 
L 104.92152 73.385927 
L 104.980901 75.226144 
L 105.040283 82.969164 
L 105.099665 80.690335 
L 105.159047 60.427233 
L 105.218429 73.573102 
L 105.277811 91.126758 
L 105.337193 60.618412 
L 105.396575 86.875799 
L 105.574721 67.544143 
L 105.634103 82.616681 
L 105.693484 72.053371 
L 105.812248 55.351796 
L 105.87163 74.430747 
L 105.931012 69.797605 
L 105.990394 52.866598 
L 106.109158 78.435577 
L 106.16854 53.022178 
L 106.346685 89.163743 
L 106.465449 67.664354 
L 106.524831 78.291162 
L 106.584213 66.781217 
L 106.643595 73.769048 
L 106.702977 79.946919 
L 106.762359 65.840276 
L 106.821741 71.485026 
L 106.881123 71.985246 
L 106.999887 76.894587 
L 107.059268 84.325482 
L 107.178032 56.837661 
L 107.356178 58.22806 
L 107.534324 67.235472 
L 107.593706 83.307817 
L 107.653088 71.486362 
L 107.71247 80.04521 
L 107.771851 78.889482 
L 107.890615 62.64001 
L 107.949997 65.867184 
L 108.009379 86.2149 
L 108.068761 67.797334 
L 108.128143 77.421303 
L 108.187525 77.293471 
L 108.246907 80.552917 
L 108.306289 79.430184 
L 108.365671 57.103486 
L 108.425053 76.380357 
L 108.484434 63.719011 
L 108.543816 65.545967 
L 108.603198 80.558949 
L 108.721962 61.549996 
L 108.781344 77.542127 
L 108.840726 65.823046 
L 108.900108 65.536915 
L 109.078254 86.333591 
L 109.137635 71.834524 
L 109.197017 75.468568 
L 109.315781 80.121179 
L 109.375163 79.775793 
L 109.434545 65.598909 
L 109.493927 74.467782 
L 109.553309 75.114473 
L 109.672073 57.575669 
L 109.9096 79.726379 
L 110.087746 57.066295 
L 110.147128 75.190888 
L 110.20651 64.75971 
L 110.384656 78.036615 
L 110.444038 63.409506 
L 110.50342 71.886101 
L 110.681565 77.134768 
L 110.800329 62.880262 
L 110.859711 63.090337 
L 110.919093 62.460699 
L 111.037857 81.565924 
L 111.097239 55.616167 
L 111.156621 66.951843 
L 111.275384 87.227689 
L 111.45353 69.662654 
L 111.512912 82.667193 
L 111.572294 62.063326 
L 111.631676 74.205062 
L 111.691058 73.623095 
L 111.75044 75.455926 
L 111.809822 71.907751 
L 111.928586 83.042346 
L 112.047349 82.293165 
L 112.166113 72.452348 
L 112.225495 90.891077 
L 112.344259 58.381915 
L 112.463023 81.899624 
L 112.522405 73.135053 
L 112.641168 69.021191 
L 112.70055 75.538834 
L 112.759932 69.860963 
L 112.819314 72.334709 
L 112.878696 63.643465 
L 112.938078 64.724418 
L 113.116224 85.879894 
L 113.234988 67.661966 
L 113.29437 80.617573 
L 113.353751 73.491104 
L 113.413133 69.658759 
L 113.591279 88.851658 
L 113.769425 57.381002 
L 113.947571 78.012857 
L 114.006953 64.132506 
L 114.066334 69.694686 
L 114.125716 64.157561 
L 114.185098 80.992885 
L 114.24448 71.052546 
L 114.303862 61.479639 
L 114.363244 63.829582 
L 114.482008 86.420186 
L 114.660154 56.686945 
L 114.719536 76.922166 
L 114.778917 59.481944 
L 114.838299 68.916631 
L 114.897681 58.595985 
L 115.075827 95.66208 
L 115.313355 80.433082 
L 115.372737 81.511805 
L 115.432119 60.158153 
L 115.4915 82.547668 
L 115.550882 67.296118 
L 115.610264 47.081239 
L 115.78841 80.524681 
L 115.847792 77.281428 
L 115.907174 64.26478 
L 115.966556 72.886089 
L 116.025938 80.933396 
L 116.08532 78.243491 
L 116.263465 62.650772 
L 116.322847 78.612075 
L 116.382229 71.846118 
L 116.500993 62.905163 
L 116.560375 66.698183 
L 116.619757 77.994433 
L 116.679139 73.700822 
L 116.797903 62.021323 
L 116.976048 87.830846 
L 117.03543 66.60158 
L 117.094812 71.661308 
L 117.213576 92.053418 
L 117.33234 63.286675 
L 117.391722 69.664557 
L 117.510486 82.164805 
L 117.569867 45.764888 
L 117.629249 78.458924 
L 117.688631 76.924225 
L 117.807395 84.598476 
L 117.926159 66.103891 
L 117.985541 78.042282 
L 118.104305 64.219821 
L 118.223069 80.444382 
L 118.341832 80.270204 
L 118.401214 67.729492 
L 118.519978 92.567078 
L 118.57936 80.338894 
L 118.638742 80.818517 
L 118.698124 79.784759 
L 118.757506 82.113795 
L 118.87627 74.416742 
L 118.935652 81.035896 
L 118.995033 77.594569 
L 119.173179 80.604257 
L 119.232561 68.80065 
L 119.291943 75.212711 
L 119.351325 76.333763 
L 119.410707 89.349044 
L 119.470089 71.321102 
L 119.529471 78.818922 
L 119.588853 71.809726 
L 119.648234 84.170234 
L 119.707616 61.385726 
L 119.766998 71.520829 
L 119.82638 68.781804 
L 119.885762 87.138729 
L 119.945144 81.731166 
L 120.242054 62.638978 
L 120.301436 71.087024 
L 120.360817 96.869332 
L 120.538963 70.549448 
L 120.598345 69.905811 
L 120.717109 81.024742 
L 120.835873 67.095729 
L 120.954637 94.622431 
L 121.014019 72.893575 
L 121.0734 74.430039 
L 121.192164 81.7782 
L 121.251546 61.329174 
L 121.310928 77.095038 
L 121.489074 65.884283 
L 121.548456 76.548256 
L 121.607838 76.51678 
L 121.66722 59.546981 
L 121.726602 92.372537 
L 121.785983 76.258435 
L 121.904747 82.530248 
L 122.023511 72.945029 
L 122.082893 75.564441 
L 122.142275 88.728975 
L 122.201657 78.436197 
L 122.261039 70.879342 
L 122.320421 75.458831 
L 122.379803 88.338702 
L 122.439185 66.398222 
L 122.498566 83.195052 
L 122.557948 69.452229 
L 122.61733 70.476989 
L 122.736094 81.271502 
L 122.795476 73.872777 
L 122.91424 86.371607 
L 122.973622 71.504325 
L 123.033004 87.706483 
L 123.092386 70.172723 
L 123.151767 82.090102 
L 123.211149 94.4473 
L 123.270531 69.242685 
L 123.329913 69.863776 
L 123.389295 66.982628 
L 123.448677 78.422958 
L 123.508059 69.835577 
L 123.567441 65.770965 
L 123.626823 82.801174 
L 123.686205 66.742037 
L 123.804969 82.578155 
L 123.86435 82.645699 
L 123.923732 77.139445 
L 123.983114 93.686255 
L 124.042496 80.620156 
L 124.101878 67.697684 
L 124.16126 82.693059 
L 124.220642 79.720095 
L 124.280024 75.971946 
L 124.339406 79.031312 
L 124.45817 73.252749 
L 124.636315 89.069936 
L 124.755079 66.338924 
L 124.814461 79.597083 
L 124.873843 69.33513 
L 124.933225 69.423369 
L 124.992607 63.984201 
L 125.170753 74.269967 
L 125.230135 78.059897 
L 125.289516 63.912121 
L 125.348898 78.504813 
L 125.40828 69.491024 
L 125.527044 80.060258 
L 125.586426 68.783113 
L 125.645808 78.477086 
L 125.70519 78.974657 
L 125.823954 72.024089 
L 125.942717 88.095158 
L 126.002099 70.260977 
L 126.061481 73.69259 
L 126.120863 74.624414 
L 126.180245 96.041229 
L 126.239627 75.027952 
L 126.299009 78.856395 
L 126.358391 75.506556 
L 126.417773 84.18482 
L 126.477155 77.687134 
L 126.536537 77.712761 
L 126.595919 68.659098 
L 126.714682 78.461074 
L 126.774064 78.729942 
L 126.95221 87.074454 
L 127.011592 75.162923 
L 127.070974 77.473247 
L 127.130356 74.693671 
L 127.189738 63.473756 
L 127.24912 73.000383 
L 127.308502 74.540557 
L 127.367883 88.972836 
L 127.427265 81.5049 
L 127.605411 66.858121 
L 127.664793 90.219651 
L 127.724175 70.792268 
L 127.783557 74.288361 
L 127.842939 87.856534 
L 127.902321 76.091155 
L 127.961703 72.519775 
L 128.021085 86.299694 
L 128.080466 80.402294 
L 128.139848 80.696256 
L 128.317994 68.430656 
L 128.377376 82.089274 
L 128.436758 73.990647 
L 128.49614 72.807287 
L 128.614904 76.935142 
L 128.733668 67.905775 
L 128.852431 99.806842 
L 128.911813 73.284891 
L 128.971195 85.688276 
L 129.089959 70.706491 
L 129.149341 82.664073 
L 129.208723 82.186318 
L 129.268105 76.105089 
L 129.327487 95.275327 
L 129.505632 72.784523 
L 129.683778 86.035433 
L 129.861924 61.353658 
L 129.921306 69.855193 
L 129.980688 70.274074 
L 130.218215 84.468871 
L 130.277597 68.08904 
L 130.336979 85.318678 
L 130.396361 85.188698 
L 130.455743 84.778261 
L 130.515125 77.222392 
L 130.574507 80.781166 
L 130.693271 91.383747 
L 130.871416 63.765676 
L 130.99018 91.661877 
L 131.108944 69.943011 
L 131.168326 84.569096 
L 131.227708 71.631239 
L 131.28709 72.020773 
L 131.465236 83.202464 
L 131.524618 74.908668 
L 131.643381 85.609608 
L 131.762145 72.399283 
L 131.821527 92.570982 
L 131.880909 77.211538 
L 131.940291 71.941827 
L 131.999673 83.040286 
L 132.059055 82.512066 
L 132.118437 80.835893 
L 132.296582 67.235621 
L 132.415346 88.484144 
L 132.474728 76.99835 
L 132.53411 95.278156 
L 132.712256 67.456166 
L 132.771638 69.472113 
L 132.83102 75.971572 
L 132.890402 65.700871 
L 132.949783 67.086058 
L 133.127929 88.083129 
L 133.187311 87.034921 
L 133.246693 75.125612 
L 133.306075 84.435606 
L 133.365457 80.554571 
L 133.424839 88.271979 
L 133.543603 80.704423 
L 133.602985 82.799829 
L 133.662366 80.908193 
L 133.78113 69.25336 
L 133.840512 79.238353 
L 133.899894 79.04956 
L 133.959276 67.62757 
L 134.07804 85.262499 
L 134.196804 70.289602 
L 134.256186 89.341672 
L 134.315568 79.591041 
L 134.374949 71.824011 
L 134.434331 88.399912 
L 134.493713 78.37946 
L 134.553095 89.199443 
L 134.612477 73.310917 
L 134.731241 91.061119 
L 134.790623 63.634151 
L 134.850005 77.042707 
L 134.909387 68.6464 
L 134.968769 72.202547 
L 135.028151 68.534626 
L 135.146914 87.344658 
L 135.206296 64.908824 
L 135.265678 76.876003 
L 135.32506 73.636787 
L 135.384442 77.576413 
L 135.443824 74.130065 
L 135.503206 99.741785 
L 135.562588 81.476688 
L 135.62197 87.431862 
L 135.740734 68.8664 
L 135.800115 71.736418 
L 135.978261 79.243005 
L 136.037643 70.056225 
L 136.097025 71.394711 
L 136.156407 82.652264 
L 136.215789 71.722546 
L 136.393935 91.027859 
L 136.453316 70.574643 
L 136.512698 81.274324 
L 136.57208 79.78812 
L 136.690844 69.529846 
L 136.809608 86.522013 
L 136.86899 81.506075 
L 137.047136 72.15117 
L 137.106518 63.283798 
L 137.225281 84.213532 
L 137.284663 71.475363 
L 137.344045 77.971573 
L 137.462809 69.225783 
L 137.522191 59.503441 
L 137.700337 92.229437 
L 137.819101 59.852555 
L 137.937864 80.050033 
L 137.997246 76.335632 
L 138.056628 72.442801 
L 138.175392 89.572225 
L 138.234774 68.651978 
L 138.294156 80.841734 
L 138.353538 83.844872 
L 138.41292 67.065192 
L 138.472302 80.388852 
L 138.531684 74.2706 
L 138.591065 80.199824 
L 138.650447 67.591514 
L 138.769211 79.302521 
L 138.828593 79.878752 
L 138.887975 59.244766 
L 138.947357 67.790231 
L 139.006739 65.705768 
L 139.125503 88.262071 
L 139.184885 79.941932 
L 139.244266 76.402585 
L 139.303648 76.834116 
L 139.36303 76.850497 
L 139.422412 74.059528 
L 139.481794 61.435906 
L 139.600558 78.192553 
L 139.65994 76.522878 
L 139.719322 69.193163 
L 139.778704 85.085493 
L 139.838086 67.806092 
L 139.897468 75.657232 
L 139.956849 84.375376 
L 140.016231 77.955048 
L 140.075613 78.979351 
L 140.134995 87.98308 
L 140.194377 85.830673 
L 140.253759 71.705029 
L 140.313141 74.442893 
L 140.372523 71.062589 
L 140.431905 87.635924 
L 140.550669 69.863773 
L 140.669432 79.422205 
L 140.728814 63.239082 
L 140.788196 69.171749 
L 140.847578 83.543537 
L 140.90696 82.69213 
L 141.085106 65.249917 
L 141.20387 76.098088 
L 141.263252 69.523489 
L 141.441397 81.429216 
L 141.500779 77.155421 
L 141.560161 59.099163 
L 141.619543 79.508274 
L 141.678925 67.082249 
L 141.797689 76.29349 
L 141.857071 67.577078 
L 141.916453 82.849377 
L 141.975835 77.628268 
L 142.035217 69.337389 
L 142.094598 73.339899 
L 142.15398 73.001327 
L 142.213362 77.624151 
L 142.272744 69.564249 
L 142.332126 81.66875 
L 142.391508 80.381321 
L 142.45089 78.47974 
L 142.569654 87.108022 
L 142.629036 74.685126 
L 142.688418 79.898513 
L 142.747799 82.115006 
L 142.807181 81.984166 
L 142.866563 59.540633 
L 142.925945 78.834163 
L 142.985327 80.136344 
L 143.104091 95.709045 
L 143.222855 75.295638 
L 143.282237 94.363509 
L 143.401001 68.865356 
L 143.579146 93.068964 
L 143.69791 78.981247 
L 143.757292 85.563462 
L 143.816674 77.723297 
L 143.876056 79.760041 
L 143.935438 85.187268 
L 143.99482 77.934764 
L 144.054202 90.337729 
L 144.113584 81.392277 
L 144.172965 85.396286 
L 144.232347 74.069744 
L 144.291729 88.112811 
L 144.351111 71.189425 
L 144.410493 87.555332 
L 144.469875 82.284019 
L 144.529257 87.854548 
L 144.588639 74.059154 
L 144.648021 87.628491 
L 144.707403 76.465682 
L 144.766785 81.875204 
L 144.826167 75.312743 
L 144.885548 76.340554 
L 144.94493 82.284691 
L 145.004312 79.132914 
L 145.063694 68.149463 
L 145.123076 76.856418 
L 145.182458 88.901438 
L 145.24184 75.450987 
L 145.301222 90.34972 
L 145.360604 78.434763 
L 145.419986 89.62197 
L 145.479368 79.494762 
L 145.53875 90.339764 
L 145.598131 82.185909 
L 145.716895 69.990236 
L 145.895041 88.458303 
L 145.954423 87.748395 
L 146.013805 84.682721 
L 146.073187 94.534716 
L 146.132569 81.757717 
L 146.191951 82.742458 
L 146.251332 84.950209 
L 146.310714 79.171964 
L 146.370096 82.942879 
L 146.429478 81.322445 
L 146.48886 86.199195 
L 146.607624 64.972215 
L 146.667006 65.54668 
L 146.726388 86.494554 
L 146.78577 71.004965 
L 146.845152 79.723622 
L 146.963915 70.891495 
L 147.142061 89.069805 
L 147.201443 67.281293 
L 147.260825 79.163944 
L 147.379589 92.35906 
L 147.557735 71.801886 
L 147.676498 89.323178 
L 147.73588 76.705911 
L 147.854644 107.746993 
L 147.914026 94.09341 
L 148.03279 73.503119 
L 148.092172 90.303939 
L 148.151554 78.44094 
L 148.210936 88.682379 
L 148.270318 79.957692 
L 148.3297 80.860031 
L 148.448463 71.659581 
L 148.507845 79.396054 
L 148.567227 65.082497 
L 148.745373 85.027587 
L 148.804755 86.193975 
L 148.864137 92.499921 
L 148.923519 92.306163 
L 149.101664 77.01448 
L 149.339192 97.397966 
L 149.457956 76.670995 
L 149.57672 104.221991 
L 149.754865 70.121802 
L 149.814247 75.558962 
L 149.873629 104.771813 
L 149.933011 83.562324 
L 149.992393 72.945536 
L 150.051775 84.872592 
L 150.111157 76.033911 
L 150.170539 78.462122 
L 150.229921 85.573267 
L 150.289303 77.615913 
L 150.348685 79.561045 
L 150.408067 77.13699 
L 150.467448 84.599254 
L 150.52683 75.436335 
L 150.645594 108.788003 
L 150.704976 88.239397 
L 150.764358 80.237055 
L 150.82374 84.408681 
L 150.883122 87.446107 
L 150.942504 76.782559 
L 151.001886 81.075958 
L 151.061268 90.536601 
L 151.12065 86.582574 
L 151.239413 81.462001 
L 151.298795 92.682888 
L 151.358177 74.541039 
L 151.417559 89.016918 
L 151.476941 75.673311 
L 151.595705 90.404534 
L 151.655087 76.592966 
L 151.714469 93.365014 
L 151.773851 73.522941 
L 151.833233 82.348079 
L 152.011378 87.296853 
L 152.130142 76.918096 
L 152.248906 96.794037 
L 152.308288 91.396515 
L 152.36767 106.517114 
L 152.486434 80.742414 
L 152.545815 85.120465 
L 152.605197 84.374151 
L 152.664579 87.990982 
L 152.723961 85.160018 
L 152.783343 83.951846 
L 152.842725 87.222295 
L 152.902107 80.214417 
L 152.961489 106.492966 
L 153.020871 92.034295 
L 153.199017 85.834908 
L 153.258398 95.155442 
L 153.31778 92.502884 
L 153.436544 85.252294 
L 153.495926 80.362315 
L 153.555308 96.969132 
L 153.733454 69.906908 
L 153.792836 101.872176 
L 153.852218 82.460006 
L 153.9116 99.713351 
L 153.970981 74.908152 
L 154.030363 97.718283 
L 154.089745 83.502815 
L 154.149127 71.64692 
L 154.208509 99.901929 
L 154.267891 83.176074 
L 154.327273 80.925259 
L 154.386655 101.992331 
L 154.446037 99.142431 
L 154.564801 73.263016 
L 154.624183 79.061642 
L 154.683564 86.005496 
L 154.742946 83.341166 
L 154.802328 68.696211 
L 154.86171 98.274553 
L 154.921092 83.67792 
L 155.039856 95.667157 
L 155.099238 93.290683 
L 155.218002 100.516059 
L 155.396147 75.635438 
L 155.514911 109.016722 
L 155.633675 87.322493 
L 155.693057 99.638616 
L 155.752439 98.809287 
L 155.811821 86.243077 
L 155.871203 87.132652 
L 155.930585 88.943102 
L 155.989967 84.039703 
L 156.049348 95.360322 
L 156.227494 78.683709 
L 156.40564 107.456042 
L 156.583786 81.894098 
L 156.643168 101.624512 
L 156.70255 94.629429 
L 156.880695 90.742843 
L 156.940077 93.436723 
L 156.999459 84.910184 
L 157.058841 103.135281 
L 157.118223 82.811169 
L 157.177605 91.362387 
L 157.236987 101.085822 
L 157.296369 98.611944 
L 157.355751 93.201001 
L 157.415133 98.121187 
L 157.533896 84.873479 
L 157.712042 96.255082 
L 157.771424 81.636456 
L 157.830806 83.799397 
L 157.94957 103.089639 
L 158.008952 93.097968 
L 158.068334 92.670135 
L 158.127716 87.882761 
L 158.187097 92.710795 
L 158.246479 86.795487 
L 158.484007 106.392319 
L 158.543389 77.694394 
L 158.602771 88.947681 
L 158.662153 89.519053 
L 158.780917 98.08613 
L 158.89968 82.539568 
L 159.077826 95.361785 
L 159.137208 77.21786 
L 159.19659 86.671747 
L 159.255972 77.959397 
L 159.434118 106.132977 
L 159.4935 86.694537 
L 159.552881 90.688496 
L 159.612263 104.007645 
L 159.731027 84.929919 
L 159.790409 102.455908 
L 159.849791 92.515538 
L 159.909173 82.06929 
L 159.968555 90.898828 
L 160.027937 93.501428 
L 160.146701 83.543095 
L 160.324846 110.383959 
L 160.44361 81.311953 
L 160.502992 95.894371 
L 160.562374 86.226768 
L 160.681138 97.872565 
L 160.74052 89.339683 
L 160.799902 104.958022 
L 160.859284 91.643007 
L 160.918666 100.767903 
L 160.978047 76.366832 
L 161.037429 95.125105 
L 161.096811 78.234884 
L 161.156193 84.1118 
L 161.334339 97.760479 
L 161.393721 82.648189 
L 161.453103 94.181407 
L 161.512485 105.939116 
L 161.571867 84.130817 
L 161.631249 98.512726 
L 161.69063 96.707275 
L 161.750012 102.683238 
L 161.809394 85.223274 
L 161.868776 94.557417 
L 161.928158 86.625306 
L 161.98754 88.623682 
L 162.046922 93.528408 
L 162.106304 86.445962 
L 162.165686 86.849617 
L 162.225068 95.70901 
L 162.28445 95.574756 
L 162.343832 83.978061 
L 162.403213 104.713892 
L 162.462595 86.50373 
L 162.521977 95.574229 
L 162.581359 85.337714 
L 162.640741 92.810918 
L 162.700123 98.494443 
L 162.878269 85.850503 
L 162.997033 99.870087 
L 163.056414 87.722329 
L 163.115796 90.023515 
L 163.175178 96.608263 
L 163.23456 93.643048 
L 163.353324 87.418959 
L 163.472088 95.08463 
L 163.53147 82.032227 
L 163.590852 100.096091 
L 163.650234 96.699903 
L 163.709616 84.021141 
L 163.768997 91.549616 
L 163.887761 96.561466 
L 163.947143 94.497766 
L 164.006525 109.485645 
L 164.184671 84.711425 
L 164.244053 79.212021 
L 164.362817 115.174667 
L 164.422199 88.685199 
L 164.48158 104.95941 
L 164.600344 81.585942 
L 164.659726 87.36683 
L 164.719108 99.022902 
L 164.837872 83.416517 
L 164.897254 82.74181 
L 165.016018 98.415726 
L 165.0754 91.100608 
L 165.134782 99.584176 
L 165.194163 95.610189 
L 165.253545 92.533869 
L 165.312927 104.310443 
L 165.491073 90.990435 
L 165.550455 90.81741 
L 165.609837 82.110732 
L 165.669219 91.986013 
L 165.728601 88.652515 
L 165.787983 86.098744 
L 165.847365 93.493189 
L 165.906746 80.951996 
L 165.966128 85.057341 
L 166.02551 86.708552 
L 166.084892 94.594076 
L 166.144274 86.093016 
L 166.203656 106.643168 
L 166.263038 83.215701 
L 166.32242 91.370537 
L 166.441184 97.280393 
L 166.500566 84.234081 
L 166.559947 99.313046 
L 166.619329 89.919738 
L 166.678711 91.449634 
L 166.738093 78.186687 
L 166.797475 83.335535 
L 166.856857 82.111216 
L 166.916239 91.408353 
L 166.975621 84.113327 
L 167.035003 73.625312 
L 167.153767 98.883972 
L 167.213149 75.584912 
L 167.27253 83.302864 
L 167.391294 81.865307 
L 167.450676 98.899611 
L 167.510058 92.805302 
L 167.56944 77.59012 
L 167.688204 94.17777 
L 167.747586 92.214151 
L 167.806968 75.114123 
L 167.86635 89.632573 
L 167.925732 89.783468 
L 167.985113 80.273376 
L 168.044495 91.579504 
L 168.103877 83.662762 
L 168.163259 86.223458 
L 168.222641 84.279665 
L 168.282023 80.060736 
L 168.341405 86.302519 
L 168.400787 75.94504 
L 168.460169 76.836322 
L 168.578933 93.817013 
L 168.638315 91.311577 
L 168.697696 82.016266 
L 168.81646 101.976318 
L 168.935224 75.824975 
L 168.994606 76.002888 
L 169.053988 77.195917 
L 169.11337 99.671484 
L 169.172752 82.046654 
L 169.291516 100.087349 
L 169.469661 76.119936 
L 169.529043 85.519951 
L 169.588425 84.749156 
L 169.707189 81.425466 
L 169.825953 90.608947 
L 169.885335 79.773442 
L 169.944717 81.222753 
L 170.004099 96.225201 
L 170.06348 81.292187 
L 170.122862 85.073938 
L 170.182244 94.226273 
L 170.241626 84.998324 
L 170.301008 91.067235 
L 170.36039 90.711148 
L 170.419772 81.370708 
L 170.479154 92.737643 
L 170.538536 86.172826 
L 170.597918 86.975742 
L 170.6573 91.655871 
L 170.716682 78.083592 
L 170.776063 88.052949 
L 170.835445 78.397626 
L 170.894827 79.557695 
L 171.013591 92.677618 
L 171.072973 76.181534 
L 171.132355 83.435765 
L 171.251119 89.317891 
L 171.310501 103.545563 
L 171.369883 81.367155 
L 171.429265 82.590539 
L 171.488646 104.102556 
L 171.548028 81.544308 
L 171.60741 94.209617 
L 171.666792 90.958167 
L 171.726174 99.219104 
L 171.844938 88.39292 
L 171.90432 102.585044 
L 171.963702 95.610867 
L 172.023084 95.451908 
L 172.082466 84.185254 
L 172.141848 87.002829 
L 172.201229 82.796899 
L 172.260611 101.036522 
L 172.319993 91.613628 
L 172.379375 79.399862 
L 172.557521 103.263965 
L 172.616903 83.400686 
L 172.676285 95.488272 
L 172.735667 104.839398 
L 172.795049 80.767179 
L 172.85443 88.861453 
L 173.032576 94.837974 
L 173.091958 84.485977 
L 173.15134 93.412173 
L 173.210722 85.015212 
L 173.270104 98.105167 
L 173.329486 83.310994 
L 173.388868 102.621694 
L 173.44825 83.422206 
L 173.507632 94.201507 
L 173.567013 83.869209 
L 173.626395 105.977189 
L 173.685777 100.945093 
L 173.745159 90.163085 
L 173.863923 116.42924 
L 174.042069 87.423212 
L 174.101451 103.393845 
L 174.160833 88.422703 
L 174.220215 90.959976 
L 174.338978 103.977835 
L 174.39836 86.012485 
L 174.457742 92.803341 
L 174.517124 90.672716 
L 174.754652 108.725592 
L 174.873416 89.860569 
L 174.932798 91.331045 
L 175.051561 111.292868 
L 175.110943 99.810467 
L 175.170325 102.718801 
L 175.229707 79.049707 
L 175.289089 103.859436 
L 175.348471 81.587437 
L 175.407853 98.629767 
L 175.467235 95.262615 
L 175.526617 95.797338 
L 175.585999 97.493486 
L 175.645381 88.082446 
L 175.823526 102.884774 
L 175.882908 109.587369 
L 176.061054 93.135327 
L 176.179818 98.290314 
L 176.2392 82.45629 
L 176.357963 118.6258 
L 176.476727 95.474722 
L 176.536109 99.638778 
L 176.595491 98.595565 
L 176.714255 88.735661 
L 176.773637 89.290626 
L 176.833019 102.301259 
L 176.892401 97.851504 
L 176.951783 88.262011 
L 177.011165 107.938773 
L 177.070546 92.432099 
L 177.129928 95.742263 
L 177.18931 95.310956 
L 177.248692 87.333985 
L 177.308074 102.50965 
L 177.367456 92.537633 
L 177.604984 112.34238 
L 177.664366 104.537105 
L 177.842511 78.856726 
L 177.961275 113.876877 
L 178.020657 85.309941 
L 178.080039 100.240565 
L 178.139421 97.616029 
L 178.198803 103.014515 
L 178.258185 93.263666 
L 178.317567 95.20576 
L 178.376949 113.142398 
L 178.436331 94.710861 
L 178.495712 97.106573 
L 178.555094 96.969015 
L 178.614476 93.922095 
L 178.73324 114.528765 
L 178.792622 90.352858 
L 178.852004 98.547858 
L 178.911386 96.379042 
L 178.970768 101.222516 
L 179.03015 91.968158 
L 179.208295 110.390492 
L 179.267677 88.8908 
L 179.327059 92.584276 
L 179.386441 108.071631 
L 179.445823 104.269282 
L 179.505205 96.914985 
L 179.564587 99.082445 
L 179.623969 107.599051 
L 179.683351 90.510348 
L 179.742733 96.526742 
L 179.802115 89.908017 
L 179.861496 95.237377 
L 179.920878 111.652843 
L 179.98026 97.970607 
L 180.039642 86.652251 
L 180.099024 89.847547 
L 180.158406 98.125206 
L 180.217788 86.716345 
L 180.27717 90.724006 
L 180.336552 98.023957 
L 180.395934 90.541504 
L 180.455316 96.132518 
L 180.514698 110.636398 
L 180.574079 84.247795 
L 180.633461 95.488224 
L 180.692843 92.350168 
L 180.752225 110.741207 
L 180.811607 89.823194 
L 180.870989 97.133805 
L 180.930371 97.248997 
L 181.049135 107.014977 
L 181.227281 86.82162 
L 181.286662 101.885022 
L 181.346044 87.51242 
L 181.52419 109.754773 
L 181.583572 85.649809 
L 181.642954 90.150035 
L 181.702336 90.060576 
L 181.761718 101.568378 
L 181.880482 88.28992 
L 181.939864 106.419463 
L 181.999245 92.431706 
L 182.058627 93.73514 
L 182.177391 118.752151 
L 182.236773 106.385682 
L 182.296155 87.304361 
L 182.355537 90.72792 
L 182.474301 95.169131 
L 182.533683 100.269183 
L 182.593065 92.866278 
L 182.711828 109.791118 
L 182.77121 107.01061 
L 182.889974 91.285571 
L 183.06812 108.109329 
L 183.305648 91.500059 
L 183.365029 102.793394 
L 183.543175 73.40612 
L 183.661939 109.199649 
L 183.721321 93.65029 
L 183.780703 83.238322 
L 183.840085 87.25083 
L 183.899467 83.886938 
L 183.958849 101.021907 
L 184.018231 99.384615 
L 184.077612 101.488266 
L 184.136994 86.133735 
L 184.196376 91.198171 
L 184.255758 94.152172 
L 184.31514 90.417094 
L 184.493286 112.392621 
L 184.61205 88.290157 
L 184.671432 90.744096 
L 184.730814 70.987841 
L 184.790195 75.180524 
L 184.908959 102.663024 
L 184.968341 87.263965 
L 185.027723 88.884375 
L 185.087105 101.213256 
L 185.146487 97.674969 
L 185.205869 91.151593 
L 185.265251 99.544478 
L 185.384015 88.496413 
L 185.443397 99.706408 
L 185.502778 91.764118 
L 185.56216 94.113581 
L 185.621542 92.452832 
L 185.680924 90.513778 
L 185.740306 84.712449 
L 185.799688 88.644108 
L 185.918452 96.393248 
L 185.977834 72.376842 
L 186.037216 88.783088 
L 186.096598 88.723488 
L 186.155979 89.429819 
L 186.215361 102.518839 
L 186.274743 78.065247 
L 186.334125 90.044782 
L 186.393507 81.346835 
L 186.512271 103.513365 
L 186.571653 81.107347 
L 186.631035 82.55652 
L 186.690417 93.295743 
L 186.749799 87.73859 
L 186.809181 91.74064 
L 186.868562 78.093469 
L 186.927944 99.858449 
L 186.987326 93.955947 
L 187.165472 85.241316 
L 187.284236 100.251411 
L 187.403 91.015141 
L 187.462382 103.660571 
L 187.640527 88.326386 
L 187.699909 97.95703 
L 187.818673 77.432092 
L 187.878055 80.264916 
L 187.937437 76.108396 
L 187.996819 87.728093 
L 188.056201 79.631071 
L 188.234347 95.54245 
L 188.293728 94.209644 
L 188.412492 88.210132 
L 188.471874 93.187712 
L 188.531256 83.005657 
L 188.65002 106.368936 
L 188.709402 81.748581 
L 188.768784 84.611441 
L 188.887548 90.072648 
L 188.94693 88.279961 
L 189.006311 80.0561 
L 189.065693 85.426472 
L 189.243839 111.585491 
L 189.362603 85.812464 
L 189.421985 88.10624 
L 189.481367 85.106503 
L 189.659512 97.053556 
L 189.837658 85.888239 
L 189.89704 87.786809 
L 189.956422 83.430334 
L 190.015804 84.891389 
L 190.075186 94.87958 
L 190.134568 91.525564 
L 190.19395 90.104037 
L 190.253332 83.545827 
L 190.312714 105.689573 
L 190.372095 82.374161 
L 190.431477 89.113623 
L 190.490859 95.448385 
L 190.550241 91.730322 
L 190.609623 94.842487 
L 190.669005 93.021439 
L 190.787769 76.934598 
L 190.847151 83.052286 
L 190.965915 89.106204 
L 191.025297 84.361331 
L 191.084678 86.388804 
L 191.203442 95.372722 
L 191.262824 78.977091 
L 191.322206 90.655756 
L 191.381588 91.812879 
L 191.44097 100.687911 
L 191.500352 88.299708 
L 191.559734 93.326475 
L 191.619116 88.24495 
L 191.73788 105.616765 
L 191.797261 91.508264 
L 191.856643 93.402508 
L 191.975407 86.531804 
L 192.034789 89.889002 
L 192.094171 96.835414 
L 192.153553 87.319537 
L 192.212935 90.49602 
L 192.272317 93.04255 
L 192.391081 79.158706 
L 192.450463 86.476892 
L 192.509844 85.39423 
L 192.569226 80.123245 
L 192.628608 91.447373 
L 192.68799 90.940343 
L 192.747372 86.386179 
L 192.806754 93.869148 
L 192.866136 88.049976 
L 192.925518 73.382935 
L 192.9849 73.818278 
L 193.044282 88.778425 
L 193.103664 72.558891 
L 193.163045 96.377095 
L 193.222427 73.373323 
L 193.281809 76.206843 
L 193.459955 89.313619 
L 193.578719 79.646857 
L 193.697483 90.088721 
L 193.756865 80.01874 
L 193.816247 90.729938 
L 193.875628 79.220075 
L 193.93501 84.676479 
L 193.994392 88.184042 
L 194.053774 80.850899 
L 194.113156 98.173524 
L 194.172538 67.007727 
L 194.23192 84.773577 
L 194.291302 92.595793 
L 194.350684 77.481968 
L 194.410066 89.955111 
L 194.469448 87.585311 
L 194.52883 89.492248 
L 194.588211 93.462403 
L 194.647593 82.258855 
L 194.706975 100.028863 
L 194.885121 79.683602 
L 194.944503 89.787411 
L 195.003885 85.262733 
L 195.063267 72.7192 
L 195.122649 92.615295 
L 195.182031 79.784258 
L 195.300794 85.632284 
L 195.360176 73.870282 
L 195.47894 93.991488 
L 195.657086 70.517887 
L 195.77585 81.82327 
L 195.894614 72.549209 
L 196.072759 99.484203 
L 196.250905 67.877405 
L 196.310287 85.68909 
L 196.369669 79.26304 
L 196.429051 60.569586 
L 196.488433 87.38711 
L 196.547815 85.164834 
L 196.607197 73.008971 
L 196.666578 81.033379 
L 196.785342 74.09764 
L 196.904106 84.446307 
L 197.082252 77.555152 
L 197.141634 89.829117 
L 197.201016 67.133136 
L 197.260398 77.695531 
L 197.31978 87.596062 
L 197.438543 70.315411 
L 197.497925 90.738044 
L 197.557307 81.066854 
L 197.616689 71.266323 
L 197.676071 77.389054 
L 197.735453 85.621982 
L 197.794835 73.472967 
L 197.854217 83.256993 
L 197.913599 82.228399 
L 197.972981 83.700726 
L 198.032363 77.137236 
L 198.151126 92.042973 
L 198.210508 85.492855 
L 198.26989 63.897343 
L 198.329272 75.510917 
L 198.388654 91.38866 
L 198.448036 79.442098 
L 198.507418 86.596946 
L 198.5668 76.706409 
L 198.626182 82.679721 
L 198.744946 77.051762 
L 198.863709 87.555067 
L 198.923091 84.595851 
L 198.982473 86.202956 
L 199.041855 72.685494 
L 199.101237 77.231911 
L 199.220001 71.980818 
L 199.398147 94.80354 
L 199.51691 78.136091 
L 199.635674 80.203267 
L 199.695056 67.701293 
L 199.754438 72.244227 
L 199.873202 89.722102 
L 199.932584 82.166506 
L 199.991966 90.656934 
L 200.170111 75.156786 
L 200.288875 63.659187 
L 200.348257 84.541354 
L 200.407639 82.162254 
L 200.467021 71.822769 
L 200.526403 80.502885 
L 200.585785 71.77894 
L 200.645167 82.322252 
L 200.704549 79.326033 
L 200.763931 81.947137 
L 200.823313 69.667208 
L 200.882694 102.348184 
L 200.942076 92.093708 
L 201.120222 61.646692 
L 201.238986 79.830195 
L 201.298368 77.34268 
L 201.35775 70.774676 
L 201.417132 81.712817 
L 201.476514 66.798054 
L 201.535896 77.583056 
L 201.595277 73.166904 
L 201.654659 75.774122 
L 201.714041 92.39095 
L 201.773423 83.840402 
L 202.010951 56.862847 
L 202.189097 82.410699 
L 202.248479 81.504414 
L 202.367242 66.126675 
L 202.545388 85.413436 
L 202.664152 68.412405 
L 202.723534 71.946519 
L 202.782916 76.932057 
L 202.90168 61.491587 
L 202.961061 79.34107 
L 203.020443 64.918841 
L 203.079825 55.472573 
L 203.139207 66.220522 
L 203.198589 65.372793 
L 203.257971 66.822658 
L 203.436117 90.62883 
L 203.495499 68.911063 
L 203.554881 82.025635 
L 203.614263 80.012862 
L 203.673644 69.674412 
L 203.733026 75.147336 
L 203.85179 92.786147 
L 203.911172 59.601855 
L 203.970554 71.905703 
L 204.029936 78.572358 
L 204.089318 64.329123 
L 204.208082 92.872349 
L 204.267464 62.063207 
L 204.326846 64.497563 
L 204.445609 59.814357 
L 204.504991 69.285156 
L 204.564373 64.068796 
L 204.623755 64.855723 
L 204.683137 78.718746 
L 204.742519 78.635042 
L 204.801901 63.984728 
L 204.861283 72.967385 
L 204.920665 73.146991 
L 204.980047 62.633569 
L 205.039429 82.457087 
L 205.09881 63.291431 
L 205.158192 73.079034 
L 205.276956 65.357568 
L 205.336338 65.557737 
L 205.514484 86.292747 
L 205.573866 62.212182 
L 205.633248 63.342412 
L 205.69263 68.235702 
L 205.752012 60.938587 
L 205.811393 62.710265 
L 205.870775 65.188381 
L 205.930157 74.242135 
L 205.989539 55.389587 
L 206.048921 57.550024 
L 206.227067 72.104662 
L 206.345831 67.896216 
L 206.405213 57.084308 
L 206.464594 65.214155 
L 206.523976 58.408637 
L 206.64274 94.953934 
L 206.761504 66.573369 
L 206.820886 68.11212 
L 206.93965 78.226848 
L 206.999032 47.276912 
L 207.058414 66.737997 
L 207.117796 65.887937 
L 207.177177 57.806743 
L 207.236559 69.497621 
L 207.295941 52.889174 
L 207.355323 56.77907 
L 207.414705 56.436537 
L 207.474087 59.789233 
L 207.533469 73.107026 
L 207.592851 64.28702 
L 207.652233 62.600349 
L 207.711615 67.824724 
L 207.88976 49.062855 
L 208.18667 77.518883 
L 208.305434 58.279926 
L 208.364816 64.336066 
L 208.424198 55.906558 
L 208.48358 63.067691 
L 208.542962 74.363095 
L 208.661725 50.81578 
L 208.721107 61.586263 
L 208.780489 55.87778 
L 208.899253 63.60731 
L 208.958635 54.665342 
L 209.018017 68.491383 
L 209.077399 54.655187 
L 209.136781 73.178902 
L 209.196163 65.410944 
L 209.255544 58.715553 
L 209.314926 68.588313 
L 209.374308 60.281458 
L 209.43369 52.200025 
L 209.493072 66.796751 
L 209.552454 56.750046 
L 209.611836 51.684222 
L 209.7306 82.859956 
L 209.789982 69.270423 
L 209.908746 60.923086 
L 209.968127 69.376867 
L 210.027509 63.675879 
L 210.086891 63.638847 
L 210.146273 60.057965 
L 210.205655 70.009337 
L 210.265037 47.420332 
L 210.324419 51.423371 
L 210.502565 66.188305 
L 210.561947 65.276531 
L 210.740092 50.389187 
L 210.799474 51.979581 
L 210.97762 71.475816 
L 211.215148 52.959712 
L 211.27453 57.069704 
L 211.333912 70.244589 
L 211.452675 53.353855 
L 211.512057 57.764383 
L 211.571439 48.865126 
L 211.690203 76.142615 
L 211.749585 55.847886 
L 211.808967 66.650214 
L 211.868349 68.988678 
L 211.927731 52.763655 
L 211.987113 63.005037 
L 212.046495 61.173331 
L 212.105876 55.421795 
L 212.165258 59.606736 
L 212.22464 62.215736 
L 212.284022 60.714514 
L 212.343404 50.552594 
L 212.402786 52.376848 
L 212.462168 65.697088 
L 212.52155 62.062627 
L 212.640314 71.300656 
L 212.699696 54.856246 
L 212.759077 58.371206 
L 212.818459 63.840402 
L 212.877841 48.6127 
L 212.937223 56.328875 
L 212.996605 73.302721 
L 213.055987 66.224629 
L 213.115369 43.182554 
L 213.174751 57.432079 
L 213.234133 54.63913 
L 213.293515 62.159503 
L 213.352897 55.661046 
L 213.412279 41.021922 
L 213.47166 51.674742 
L 213.531042 47.831645 
L 213.590424 71.573671 
L 213.649806 56.227198 
L 213.709188 65.297425 
L 213.76857 63.448009 
L 213.827952 46.03865 
L 213.887334 50.386831 
L 214.06548 72.645096 
L 214.124862 54.668358 
L 214.184243 70.566699 
L 214.243625 57.400677 
L 214.303007 62.940426 
L 214.362389 53.834524 
L 214.421771 63.322399 
L 214.481153 49.023065 
L 214.540535 51.024137 
L 214.599917 54.738216 
L 214.659299 50.075725 
L 214.718681 67.33254 
L 214.778063 52.486023 
L 214.837445 51.726071 
L 214.896826 52.710489 
L 215.01559 71.748375 
L 215.074972 51.756854 
L 215.134354 52.258036 
L 215.193736 59.649157 
L 215.371882 49.450679 
L 215.550028 67.683234 
L 215.609409 68.343758 
L 215.728173 64.428928 
L 215.787555 52.161367 
L 215.846937 69.208059 
L 215.906319 58.811218 
L 216.025083 69.245932 
L 216.143847 38.095698 
L 216.26261 66.294566 
L 216.321992 59.553525 
L 216.500138 50.798139 
L 216.55952 57.477109 
L 216.618902 54.191125 
L 216.678284 50.237451 
L 216.737666 50.50545 
L 216.797048 52.168011 
L 216.85643 49.459087 
L 216.915812 57.734633 
L 216.975193 48.508734 
L 217.212721 71.198522 
L 217.331485 58.193517 
L 217.390867 58.831573 
L 217.450249 63.250423 
L 217.509631 60.260361 
L 217.569013 58.574768 
L 217.628395 49.359133 
L 217.687776 50.425637 
L 217.747158 65.007569 
L 217.80654 52.968018 
L 217.865922 54.470522 
L 217.925304 47.182346 
L 217.984686 49.790099 
L 218.044068 49.365881 
L 218.162832 69.028931 
L 218.340978 47.040964 
L 218.400359 67.703381 
L 218.459741 61.597263 
L 218.519123 59.887394 
L 218.578505 62.84334 
L 218.637887 62.008041 
L 218.756651 46.328657 
L 218.816033 55.359574 
L 218.875415 50.635553 
L 218.934797 51.836294 
L 218.994179 62.483665 
L 219.053561 51.60422 
L 219.231706 66.777982 
L 219.291088 46.910211 
L 219.35047 59.086099 
L 219.409852 56.337222 
L 219.469234 46.351916 
L 219.528616 65.719481 
L 219.587998 46.782353 
L 219.64738 47.460021 
L 219.766143 61.832524 
L 219.825525 53.046886 
L 219.884907 53.299977 
L 219.944289 76.746522 
L 220.003671 60.336021 
L 220.122435 44.64447 
L 220.181817 50.46924 
L 220.300581 59.452964 
L 220.359963 50.981897 
L 220.419345 53.818333 
L 220.478726 50.405702 
L 220.538108 52.823405 
L 220.59749 57.544712 
L 220.716254 43.03188 
L 220.835018 46.250628 
L 221.072546 65.372075 
L 221.191309 34.350736 
L 221.428837 62.229585 
L 221.488219 48.645705 
L 221.547601 70.651934 
L 221.606983 64.314393 
L 221.666365 54.67392 
L 221.725747 55.899862 
L 221.785129 67.771249 
L 221.844511 38.212287 
L 221.903892 56.429459 
L 222.022656 52.930345 
L 222.082038 55.568341 
L 222.200802 47.811509 
L 222.378948 63.738318 
L 222.43833 51.808968 
L 222.497712 63.986946 
L 222.557094 61.651713 
L 222.616475 47.81961 
L 222.675857 62.579769 
L 222.735239 56.123682 
L 222.794621 47.246594 
L 222.854003 52.44955 
L 222.972767 55.226298 
L 223.032149 49.058924 
L 223.091531 68.970438 
L 223.150913 62.279321 
L 223.210295 69.263638 
L 223.269676 41.263314 
L 223.329058 64.661551 
L 223.447822 40.134793 
L 223.625968 61.765875 
L 223.68535 55.797043 
L 223.744732 59.014138 
L 223.863496 52.122689 
L 223.922878 61.311028 
L 223.982259 47.318425 
L 224.041641 54.031497 
L 224.101023 55.688486 
L 224.160405 45.836427 
L 224.219787 50.58307 
L 224.279169 61.74762 
L 224.338551 43.877927 
L 224.397933 50.421567 
L 224.576079 63.83853 
L 224.635461 46.614646 
L 224.694842 61.329225 
L 224.813606 53.13357 
L 224.872988 62.019642 
L 224.93237 52.425985 
L 224.991752 54.463082 
L 225.051134 56.526863 
L 225.110516 55.542541 
L 225.169898 43.898459 
L 225.288662 58.512297 
L 225.348044 56.657692 
L 225.407425 53.68282 
L 225.466807 54.81297 
L 225.526189 41.967434 
L 225.585571 47.066424 
L 225.644953 46.745915 
L 225.704335 59.52666 
L 225.763717 54.932343 
L 225.823099 49.922165 
L 225.882481 60.205434 
L 226.001245 43.910375 
L 226.120008 63.152877 
L 226.17939 44.728828 
L 226.238772 44.899523 
L 226.298154 58.83494 
L 226.357536 44.136647 
L 226.416918 44.709907 
L 226.535682 64.488902 
L 226.535682 64.488902 
" clip-path="url(#pd4dd21e14d)" style="fill: none; stroke: #0000ff; stroke-width: 0.1; stroke-linecap: square"/>
   </g>
   <g id="LineCollection_1">
    <path d="M 48.449318 42.178016 
L 78.140276 42.178016 
" clip-path="url(#pd4dd21e14d)" style="fill: none; stroke: #ffa500; stroke-width: 2"/>
   </g>
   <g id="LineCollection_2">
    <path d="M 107.831233 75.828174 
L 137.522191 75.828174 
" clip-path="url(#pd4dd21e14d)" style="fill: none; stroke: #ffa500; stroke-width: 2"/>
   </g>
   <g id="LineCollection_3">
    <path d="M 167.213149 91.252143 
L 196.904106 91.252143 
" clip-path="url(#pd4dd21e14d)" style="fill: none; stroke: #ffa500; stroke-width: 2"/>
   </g>
   <g id="patch_3">
    <path d="M 39.545 124.002259 
L 39.545 8.499875 
" style="fill: none; stroke: #000000; stroke-width: 0.8; stroke-linejoin: miter; stroke-linecap: square"/>
   </g>
   <g id="patch_4">
    <path d="M 235.44 124.002259 
L 235.44 8.499875 
" style="fill: none; stroke: #000000; stroke-width: 0.8; stroke-linejoin: miter; stroke-linecap: square"/>
   </g>
   <g id="patch_5">
    <path d="M 39.545 124.002259 
L 235.44 124.002259 
" style="fill: none; stroke: #000000; stroke-width: 0.8; stroke-linejoin: miter; stroke-linecap: square"/>
   </g>
   <g id="patch_6">
    <path d="M 39.545 8.499875 
L 235.44 8.499875 
" style="fill: none; stroke: #000000; stroke-width: 0.8; stroke-linejoin: miter; stroke-linecap: square"/>
   </g>
   <g id="patch_7">
    <path d="M 48.449318 91.728779 
L 48.449318 -5.948323 
L 78.140276 -5.948323 
L 78.140276 91.728779 
z
" clip-path="url(#pd4dd21e14d)" style="fill: #ffa500; opacity: 0.3"/>
   </g>
   <g id="patch_8">
    <path d="M 107.831233 119.505147 
L 107.831233 26.066582 
L 137.522191 26.066582 
L 137.522191 119.505147 
z
" clip-path="url(#pd4dd21e14d)" style="fill: #ffa500; opacity: 0.3"/>
   </g>
   <g id="patch_9">
    <path d="M 167.213149 138.450457 
L 167.213149 40.87128 
L 196.904106 40.87128 
L 196.904106 138.450457 
z
" clip-path="url(#pd4dd21e14d)" style="fill: #ffa500; opacity: 0.3"/>
   </g>
  </g>
 </g>
 <defs>
  <clipPath id="pd4dd21e14d">
   <rect x="39.545" y="8.499875" width="195.895" height="115.502384"/>
  </clipPath>
 </defs>
</svg>
